<?xml version="1.0" standalone="no"?>
<!DOCTYPE svg PUBLIC "-//W3C//DTD SVG 20010904//EN"
 "http://www.w3.org/TR/2001/REC-SVG-20010904/DTD/svg10.dtd">
<svg version="1.0" xmlns="http://www.w3.org/2000/svg"
 width="1280.000000pt" height="1280.000000pt" viewBox="0 0 1280.000000 1280.000000"
 preserveAspectRatio="xMidYMid meet">

<g transform="translate(0.000000,1280.000000) scale(0.100000,-0.100000)"
fill="#000000" stroke="none">
<path d="M10239 11777 c-67 -25 -103 -52 -130 -97 -23 -38 -28 -57 -28 -123
-1 -46 5 -91 13 -112 19 -44 92 -115 128 -122 16 -3 31 -10 34 -14 7 -12 121
-11 129 1 3 6 15 10 26 10 32 0 133 108 147 156 17 58 15 112 -7 160 -23 51
-75 110 -113 130 -42 22 -155 28 -199 11z m139 -18 c24 -5 51 -16 59 -24 8 -8
21 -15 29 -15 8 0 14 -4 14 -10 0 -5 9 -18 21 -29 39 -36 48 -175 16 -238 -21
-40 -63 -68 -71 -48 -3 8 0 17 6 21 7 4 8 3 4 -4 -4 -7 -3 -12 2 -12 19 0 52
95 52 152 0 71 -78 189 -115 174 -9 -3 -14 -2 -11 3 9 13 -19 21 -75 21 -36 0
-49 -4 -49 -15 0 -8 -6 -12 -13 -9 -17 6 -88 -48 -82 -63 2 -7 -1 -12 -8 -10
-7 1 -12 -7 -12 -18 0 -11 -6 -26 -12 -33 -7 -7 -13 -33 -13 -57 0 -24 6 -48
13 -52 6 -4 12 -17 12 -28 0 -11 5 -19 12 -18 7 2 10 -3 7 -11 -3 -8 -1 -17 5
-21 6 -3 11 -11 11 -17 0 -18 -30 13 -49 51 -37 72 -35 141 5 228 17 38 22 41
94 70 63 25 87 27 148 12z m-45 -96 c-7 -2 -19 -2 -25 0 -7 3 -2 5 12 5 14 0
19 -2 13 -5z m42 -85 c37 -18 48 -20 54 -9 11 18 19 3 17 -33 -1 -20 -7 -30
-19 -32 -9 -1 -15 1 -12 6 5 9 -24 25 -40 21 -5 -2 -7 1 -3 5 13 12 -34 44
-66 44 -24 0 -27 3 -16 10 22 14 34 12 85 -12z m-168 -50 c-2 -13 -4 -3 -4 22
0 25 2 35 4 23 2 -13 2 -33 0 -45z m-20 5 c-3 -10 -5 -2 -5 17 0 19 2 27 5 18
2 -10 2 -26 0 -35z m95 -27 c7 4 8 2 4 -4 -5 -8 4 -12 28 -12 19 0 41 -7 50
-15 8 -8 23 -15 33 -15 17 -1 17 -1 0 -14 -16 -12 -25 -11 -65 6 -63 27 -82
46 -82 78 0 42 15 46 18 6 2 -23 7 -34 14 -30z m55 -96 c3 -11 9 -20 14 -20 5
0 9 -4 9 -10 0 -5 -16 -10 -35 -10 -37 0 -38 2 -29 38 8 27 34 29 41 2z"/>
<path d="M9235 11740 c4 -6 -15 -10 -49 -10 -31 0 -56 -4 -56 -10 0 -5 -8 -10
-19 -10 -10 0 -24 -7 -31 -15 -7 -8 -18 -15 -26 -15 -17 0 -134 -118 -134
-136 0 -8 -4 -14 -10 -14 -5 0 -10 -11 -10 -25 0 -14 -4 -25 -10 -25 -6 0 -10
-50 -10 -130 0 -80 4 -130 10 -130 6 0 10 -9 10 -20 0 -11 3 -20 8 -20 4 0 13
-12 20 -27 24 -55 96 -119 155 -139 9 -4 17 -10 17 -15 0 -5 14 -9 31 -9 17 0
28 -4 24 -10 -4 -6 30 -10 94 -10 61 0 101 4 101 10 0 6 14 10 30 10 17 0 30
3 30 8 0 4 12 13 28 19 33 15 132 106 132 122 0 6 5 11 10 11 6 0 10 6 10 14
0 8 8 29 17 48 9 18 20 41 25 50 11 23 10 163 -1 186 -4 9 -17 35 -27 57 -10
22 -21 42 -24 45 -3 3 -12 19 -20 35 -18 36 -35 55 -49 55 -6 0 -11 5 -11 10
0 6 -5 10 -12 10 -6 0 -26 11 -44 25 -18 14 -40 25 -48 25 -9 0 -16 5 -16 10
0 6 -29 10 -66 10 -41 0 -63 4 -59 10 3 6 -1 10 -10 10 -9 0 -13 -4 -10 -10z
m151 -118 c54 -28 107 -80 136 -134 19 -36 23 -58 23 -133 0 -78 -4 -97 -27
-140 -33 -64 -69 -97 -137 -129 -99 -46 -180 -43 -280 8 -40 21 -99 91 -122
143 -22 51 -26 160 -7 214 28 83 97 153 185 185 55 21 177 13 229 -14z"/>
<path d="M9124 11530 c-12 -4 -31 -21 -43 -36 -19 -24 -21 -39 -21 -146 0
-187 10 -197 197 -198 123 0 134 2 158 23 33 28 41 68 39 194 -1 112 -14 146
-60 163 -31 12 -241 12 -270 0z m271 -52 c12 -11 20 -185 11 -234 -4 -19 -16
-38 -27 -44 -11 -6 -68 -11 -126 -11 -146 0 -148 3 -148 155 0 134 5 144 78
148 75 5 200 -3 212 -14z"/>
<path d="M9215 11430 c-3 -5 3 -10 14 -10 12 0 21 5 21 10 0 6 -6 10 -14 10
-8 0 -18 -4 -21 -10z"/>
<path d="M9265 11430 c-3 -5 3 -10 14 -10 12 0 21 5 21 10 0 6 -6 10 -14 10
-8 0 -18 -4 -21 -10z"/>
<path d="M9160 11374 c0 -8 5 -12 10 -9 6 3 10 10 10 16 0 5 -4 9 -10 9 -5 0
-10 -7 -10 -16z"/>
<path d="M9330 11381 c0 -6 5 -13 10 -16 6 -3 10 1 10 9 0 9 -4 16 -10 16 -5
0 -10 -4 -10 -9z"/>
<path d="M9235 11363 c-18 -18 -16 -32 8 -47 21 -13 51 13 42 36 -10 24 -32
29 -50 11z"/>
<path d="M9160 11318 c0 -18 18 -34 28 -24 3 4 -2 14 -11 23 -16 16 -17 16
-17 1z"/>
<path d="M9336 11321 c-4 -7 -5 -15 -2 -18 9 -9 19 4 14 18 -4 11 -6 11 -12 0z"/>
<path d="M9285 11266 c-11 -8 -14 -15 -8 -19 6 -4 16 0 23 8 17 21 8 28 -15
11z"/>
<path d="M9217 11259 c7 -7 15 -10 18 -7 3 3 -2 9 -12 12 -14 6 -15 5 -6 -5z"/>
<path d="M11121 11509 c-47 -14 -127 -97 -142 -148 -24 -80 22 -202 96 -253
86 -60 171 -60 257 1 60 42 93 99 103 177 5 46 2 62 -24 118 -26 57 -35 67
-78 86 -55 25 -161 35 -212 19z m190 -61 c-7 -19 -15 -22 -42 -20 -48 5 -55
17 -11 20 20 1 41 7 46 12 15 15 16 12 7 -12z m45 -13 c4 -8 0 -22 -7 -31 -11
-13 -11 -17 1 -24 51 -29 56 -37 40 -67 -20 -36 -55 -41 -86 -12 -18 16 -27
20 -35 12 -14 -14 36 -49 62 -45 10 2 20 -2 24 -8 3 -5 1 -11 -4 -11 -6 -1
-15 -2 -21 -3 -5 0 -17 -11 -25 -23 -18 -25 -45 -29 -74 -11 -19 12 -51 5 -51
-11 0 -5 12 -11 26 -13 57 -7 57 -69 1 -76 -21 -3 -30 3 -39 22 -6 15 -20 26
-30 26 -15 0 -18 5 -13 21 5 14 0 28 -15 44 -12 13 -19 28 -15 34 10 17 56 38
98 46 20 4 37 12 37 17 0 17 -88 0 -120 -22 -48 -34 -90 -21 -90 28 0 27 15
42 74 73 34 18 52 21 123 17 71 -4 86 -2 100 14 20 22 32 23 39 3z m-193 -2
c-7 -2 -19 -2 -25 0 -7 3 -2 5 12 5 14 0 19 -2 13 -5z m242 -71 c-2 -2 -15 4
-29 13 -21 14 -23 20 -13 36 11 17 13 17 28 -14 10 -17 16 -33 14 -35z m-345
39 c0 -5 -6 -11 -14 -14 -8 -3 -22 -17 -32 -31 -15 -24 -15 -28 0 -51 20 -30
20 -36 2 -29 -27 10 -30 61 -6 99 20 32 50 48 50 26z m360 -69 c0 -10 -6 -27
-14 -38 -13 -17 -13 -15 -3 19 13 41 17 46 17 19z m-340 -77 c0 -9 -6 -12 -15
-9 -8 4 -12 10 -9 15 8 14 24 10 24 -6z m40 -57 c0 -13 -23 -5 -28 10 -2 7 2
10 12 6 9 -3 16 -11 16 -16z m160 -22 c0 -8 -4 -17 -9 -20 -10 -7 -23 19 -14
28 11 11 23 6 23 -8z m-126 -52 c5 -14 4 -15 -9 -4 -17 14 -19 20 -6 20 5 0
12 -7 15 -16z m81 -34 c-3 -5 -17 -10 -30 -10 -13 0 -27 5 -30 10 -4 6 8 10
30 10 22 0 34 -4 30 -10z"/>
<path d="M9700 11120 c0 -5 -5 -10 -10 -10 -16 0 -60 -47 -60 -64 0 -8 -4 -18
-10 -21 -14 -9 -14 -852 0 -860 6 -3 12 0 15 7 5 12 16 607 15 781 0 54 20
101 51 117 28 16 1019 16 1048 1 31 -17 41 -44 41 -111 0 -61 0 -62 -17 -41
l-18 22 -537 -3 c-295 -2 -540 -7 -545 -11 -4 -5 -9 -174 -11 -375 -1 -202 -5
-374 -8 -382 -6 -17 -7 -451 -1 -457 2 -2 12 -1 21 3 12 5 16 14 12 33 -6 33
-10 388 -8 818 l2 333 544 2 c299 2 542 -1 539 -5 -3 -4 5 -16 16 -26 15 -13
21 -30 21 -58 0 -22 3 -61 6 -86 l7 -46 66 -4 c36 -1 -36 -3 -161 -2 -124 0
-229 -2 -231 -5 -3 -3 -7 -34 -8 -70 l-3 -65 35 2 c31 3 32 2 10 -7 -22 -10
-23 -11 -7 -33 65 -89 77 -135 67 -252 -9 -94 -34 -148 -94 -209 -142 -141
-363 -135 -501 15 -67 72 -91 135 -90 239 0 90 30 164 94 234 102 110 299 142
412 66 60 -41 68 -39 68 20 0 40 -4 52 -22 64 -70 44 -238 60 -334 31 -118
-35 -231 -139 -279 -258 -86 -211 14 -461 222 -560 59 -28 81 -32 162 -36 100
-3 147 6 220 42 59 29 136 99 167 153 14 24 29 44 34 44 4 0 10 -23 14 -51 4
-28 15 -70 26 -93 10 -22 28 -72 40 -111 12 -38 29 -80 36 -92 18 -29 48 -113
64 -181 18 -78 3 -87 -57 -31 l-48 44 3 60 c1 33 -1 66 -6 72 -11 17 -981 19
-1030 2 -18 -6 -36 -8 -39 -5 -4 3 -5 102 -4 220 2 130 -1 216 -7 220 -11 6
-92 -72 -92 -89 0 -6 -9 -17 -20 -25 -11 -8 -20 -20 -20 -27 0 -7 -4 -13 -10
-13 -5 0 -10 -7 -10 -15 0 -8 -4 -15 -10 -15 -5 0 -10 -7 -10 -15 0 -8 -4 -15
-8 -15 -5 0 -17 -16 -28 -35 -10 -19 -22 -35 -26 -35 -5 0 -8 -18 -8 -40 0
-22 -4 -40 -10 -40 -5 0 -10 -25 -10 -55 0 -30 -4 -55 -10 -55 -5 0 -10 -23
-10 -51 0 -31 -4 -48 -10 -44 -6 4 -10 -12 -10 -39 0 -25 -4 -46 -10 -46 -5 0
-10 -7 -10 -16 0 -8 -11 -32 -25 -52 -14 -20 -25 -44 -25 -54 0 -9 -4 -20 -10
-23 -6 -4 -10 -65 -10 -151 0 -89 -4 -144 -10 -144 -6 0 -10 -50 -10 -131 0
-84 -4 -128 -10 -124 -6 4 -10 -20 -10 -64 0 -41 -4 -71 -10 -71 -5 0 -10 -18
-10 -40 0 -22 -4 -40 -10 -40 -5 0 -10 -15 -10 -34 0 -19 -4 -38 -10 -41 -5
-3 -10 -19 -10 -35 0 -16 -4 -31 -9 -34 -4 -3 -11 -24 -15 -46 -3 -22 -11 -40
-16 -40 -6 0 -10 -11 -10 -24 0 -14 -4 -28 -10 -31 -5 -3 -10 -20 -10 -36 0
-18 -4 -28 -10 -24 -6 4 -10 -7 -10 -24 0 -17 -4 -31 -10 -31 -5 0 -10 -11
-10 -25 0 -14 -4 -25 -10 -25 -5 0 -10 -11 -10 -25 0 -14 -4 -25 -10 -25 -5 0
-10 -7 -10 -16 0 -9 -9 -29 -21 -45 -11 -16 -19 -39 -17 -52 l3 -22 370 0 370
0 3 48 c2 26 7 47 13 47 5 0 9 32 9 70 0 39 4 70 9 70 5 0 11 30 15 68 10 122
23 203 35 215 6 6 11 39 11 74 0 35 4 63 10 63 6 0 10 16 10 35 0 19 5 35 10
35 6 0 10 7 10 15 0 8 5 15 10 15 6 0 10 9 10 20 0 11 5 20 10 20 6 0 10 9 10
20 0 11 5 20 10 20 6 0 10 14 10 30 0 17 4 30 8 30 4 0 12 14 17 31 l10 31
406 -1 405 -2 29 27 c26 24 30 25 40 10 7 -9 17 -16 24 -16 6 0 11 -4 11 -10
0 -5 7 -10 15 -10 8 0 15 -4 15 -10 0 -5 7 -10 15 -10 8 0 15 -4 15 -10 0 -5
6 -10 14 -10 8 0 16 -4 18 -8 2 -5 26 -26 53 -46 56 -42 95 -81 95 -94 0 -5
43 -52 95 -104 52 -53 95 -102 95 -110 0 -7 9 -20 20 -28 11 -8 20 -18 20 -23
0 -4 9 -18 21 -30 11 -12 27 -37 36 -54 8 -18 19 -33 24 -33 5 0 9 -9 9 -20 0
-11 5 -20 10 -20 6 0 10 -7 10 -15 0 -8 5 -15 10 -15 6 0 10 -7 10 -15 0 -8 5
-15 10 -15 6 0 10 -9 10 -19 0 -11 4 -21 8 -23 11 -4 82 -115 82 -128 0 -6 5
-10 10 -10 6 0 10 -9 10 -20 0 -11 5 -20 10 -20 6 0 10 -7 10 -15 0 -9 8 -25
18 -36 18 -19 32 -19 453 -17 l434 3 3 21 c2 13 -7 32 -22 48 -14 14 -26 30
-26 36 0 5 -4 10 -10 10 -5 0 -10 7 -10 15 0 8 -4 15 -10 15 -5 0 -10 5 -10
11 0 7 -8 19 -18 28 -9 9 -29 32 -43 51 -15 19 -41 50 -58 67 -17 18 -31 37
-31 41 0 5 -18 28 -40 51 -22 23 -40 45 -40 49 0 4 -16 25 -35 45 -19 20 -35
42 -35 47 0 6 -4 10 -10 10 -5 0 -10 5 -10 11 0 6 -15 26 -34 44 -19 18 -33
35 -30 37 2 3 -16 26 -41 51 -25 26 -45 52 -45 57 0 6 -4 10 -10 10 -5 0 -10
6 -10 13 0 7 -16 28 -35 47 -19 19 -35 38 -35 42 0 5 -9 18 -20 30 -12 13 -20
36 -20 55 0 18 -4 33 -10 33 -5 0 -10 7 -10 15 0 8 -4 15 -10 15 -5 0 -10 7
-10 15 0 8 -4 15 -10 15 -5 0 -10 12 -10 26 0 14 -4 23 -10 19 -6 -4 -10 6
-10 24 0 16 -4 33 -10 36 -5 3 -10 21 -10 39 0 19 -7 47 -15 62 -9 17 -15 56
-15 96 0 37 -4 70 -10 73 -5 3 -10 26 -10 50 0 24 -4 47 -10 50 -5 3 -10 19
-10 36 0 16 -4 29 -10 29 -6 0 -10 30 -10 71 0 44 -4 68 -10 64 -6 -4 -10 17
-10 54 0 34 -4 61 -10 61 -5 0 -10 5 -10 10 0 6 -9 19 -20 30 -11 11 -24 20
-30 20 -5 0 -10 5 -10 11 0 7 -17 10 -45 7 l-45 -3 0 52 c0 29 -4 53 -10 53
-5 0 -10 7 -10 15 0 8 -14 28 -31 46 -28 28 -35 31 -85 27 -33 -2 -54 1 -54 8
0 5 -13 22 -28 37 -25 24 -36 27 -93 27 -57 0 -68 -4 -98 -30 l-34 -30 7 -85
c6 -75 5 -85 -10 -85 -11 0 -15 6 -11 20 3 11 1 23 -4 26 -5 3 -9 18 -9 35 0
16 -4 29 -10 29 -5 0 -10 9 -10 20 0 11 -4 20 -10 20 -5 0 -10 7 -10 15 0 8
-3 15 -8 15 -7 0 -25 30 -38 63 -3 9 -10 17 -15 17 -5 0 -9 6 -9 13 0 6 -18
27 -40 46 -26 22 -46 52 -60 88 -23 61 -24 66 -10 58 11 -7 19 21 24 95 2 30
2 5 1 -56 -2 -102 5 -144 23 -144 4 0 3 35 -2 78 -9 76 -1 192 12 192 4 0 6
-47 4 -105 -5 -114 3 -179 19 -169 6 4 9 55 8 133 l-2 126 113 3 c142 3 150 9
150 110 0 59 -3 72 -23 90 -21 20 -34 22 -133 22 l-109 0 3 165 c3 114 0 165
-7 165 -6 0 -11 5 -11 10 0 15 -38 50 -55 50 -8 0 -15 5 -15 10 0 7 -180 10
-520 10 -340 0 -520 -3 -520 -10z m1337 -460 c3 -10 2 -11 -4 -3 -4 6 -24 13
-43 16 -34 4 -33 4 4 3 26 -1 41 -6 43 -16z m-40 -13 c6 -4 13 -4 16 0 2 5 2
2 0 -5 -1 -8 -3 -22 -3 -33 0 -10 -8 -27 -17 -36 -16 -16 -31 -17 -133 -11
-63 3 -164 4 -223 1 -87 -5 -111 -3 -118 8 -14 22 -11 67 5 76 19 10 457 11
473 0z m50 -39 c-3 -7 -5 -2 -5 12 0 14 2 19 5 13 2 -7 2 -19 0 -25z m-130
-74 c-3 -3 -12 -4 -19 -1 -8 3 -5 6 6 6 11 1 17 -2 13 -5z m-223 -70 c3 -8 2
-12 -4 -9 -6 3 -10 10 -10 16 0 14 7 11 14 -7z m6 -85 c0 -5 -4 -9 -10 -9 -5
0 -10 7 -10 16 0 8 5 12 10 9 6 -3 10 -10 10 -16z m-97 -876 c-3 -21 7 -42 37
-82 31 -40 44 -68 52 -113 6 -32 8 -61 5 -64 -6 -7 -46 14 -65 33 -10 10 -31
12 -71 9 l-56 -4 2 86 c2 74 5 89 23 102 18 14 -5 15 -243 17 -144 2 -278 0
-298 -3 -33 -5 -35 -7 -32 -37 2 -18 0 -25 -4 -17 -3 8 -13 20 -22 27 -18 14
-134 16 -166 4 -11 -5 -28 -3 -38 3 -29 18 -37 -10 -37 -142 l0 -122 488 3
c268 2 499 7 514 11 26 8 27 6 41 -45 52 -197 53 -204 30 -213 -10 -4 -193 -7
-407 -6 -274 0 -392 -3 -402 -11 -15 -12 -174 -19 -213 -9 -20 5 -29 21 -51
85 -14 44 -31 89 -37 100 -6 12 -12 94 -14 193 -4 188 -1 196 51 186 15 -3 37
3 55 15 29 19 50 20 446 20 l416 1 -4 -27z m-421 -50 c9 -10 24 -34 34 -53
l17 -35 11 35 c11 34 11 32 14 -32 3 -64 1 -69 -27 -97 -48 -47 -163 -54 -254
-16 -38 16 -38 16 -32 63 10 75 15 93 25 87 5 -3 17 7 27 22 25 40 31 43 104
43 50 0 70 -4 81 -17z m233 7 c4 -6 -20 -10 -64 -10 -41 0 -71 4 -71 10 0 6
28 10 64 10 36 0 68 -4 71 -10z m2 -186 c-3 -3 -12 -4 -19 -1 -8 3 -5 6 6 6
11 1 17 -2 13 -5z"/>
<path d="M9649 9473 c0 -5 0 -82 1 -172 1 -129 5 -171 17 -195 9 -17 26 -60
37 -96 l21 -65 75 -3 c41 -2 86 0 99 3 43 11 3 25 -71 25 -42 0 -70 5 -75 13
-17 27 -56 134 -58 162 -2 17 -6 38 -10 47 -3 9 -5 78 -3 152 3 124 1 136 -14
136 -10 0 -18 -3 -19 -7z"/>
<path d="M10686 9193 c-4 -5 -222 -10 -484 -13 l-477 -5 477 -3 c546 -2 486
11 513 -110 9 -39 14 -76 10 -82 -4 -6 5 -10 21 -10 22 0 25 3 21 23 -51 203
-58 222 -81 200z"/>
<path d="M5895 10885 c-27 -8 -78 -14 -112 -15 -35 0 -63 -4 -63 -10 0 -6 -27
-10 -60 -10 -33 0 -60 -4 -60 -10 0 -5 -25 -10 -55 -10 -30 0 -55 -4 -55 -10
0 -5 -20 -10 -45 -10 -25 0 -45 -4 -45 -10 0 -5 -20 -10 -45 -10 -25 0 -45 -4
-45 -10 0 -5 -15 -10 -34 -10 -19 0 -38 -4 -41 -10 -3 -5 -19 -10 -34 -10 -16
0 -34 -7 -41 -15 -7 -8 -25 -15 -41 -15 -16 0 -29 -4 -29 -10 0 -5 -16 -10
-35 -10 -19 0 -35 -4 -35 -10 0 -5 -13 -10 -30 -10 -16 0 -30 -4 -30 -10 0 -5
-13 -10 -30 -10 -16 0 -30 -4 -30 -10 0 -5 -13 -10 -30 -10 -16 0 -30 -4 -30
-10 0 -5 -9 -10 -20 -10 -11 0 -28 -4 -38 -9 -47 -25 -134 -61 -147 -61 -8 0
-15 -4 -15 -10 0 -5 -9 -10 -20 -10 -11 0 -20 -4 -20 -10 0 -5 -11 -10 -25
-10 -14 0 -25 -4 -25 -10 0 -5 -11 -10 -25 -10 -14 0 -25 -4 -25 -10 0 -5 -11
-10 -25 -10 -14 0 -25 -4 -25 -10 0 -5 -9 -10 -20 -10 -11 0 -20 -4 -20 -10 0
-5 -9 -10 -19 -10 -10 0 -21 -7 -25 -15 -3 -8 -15 -15 -26 -15 -11 0 -20 -4
-20 -10 0 -5 -9 -10 -20 -10 -11 0 -20 -4 -20 -10 0 -5 -9 -10 -20 -10 -11 0
-20 -4 -20 -10 0 -5 -11 -10 -25 -10 -14 0 -25 -4 -25 -10 0 -5 -9 -10 -20
-10 -11 0 -20 -4 -20 -10 0 -5 -7 -10 -15 -10 -8 0 -15 -3 -15 -7 0 -5 -18
-17 -40 -27 -22 -11 -40 -23 -40 -28 0 -4 -9 -8 -20 -8 -11 0 -20 -4 -20 -10
0 -5 -9 -10 -20 -10 -11 0 -20 -4 -20 -10 0 -5 -7 -10 -15 -10 -8 0 -15 -4
-15 -10 0 -5 -9 -10 -20 -10 -11 0 -20 -4 -20 -10 0 -5 -9 -10 -19 -10 -11 0
-21 -3 -23 -7 -4 -11 -67 -55 -100 -72 -16 -8 -28 -18 -28 -23 0 -4 -9 -8 -20
-8 -11 0 -20 -4 -20 -10 0 -5 -7 -10 -15 -10 -8 0 -15 -4 -15 -10 0 -5 -7 -10
-15 -10 -8 0 -15 -4 -15 -10 0 -5 -7 -10 -15 -10 -8 0 -15 -4 -15 -10 0 -5 -6
-10 -13 -10 -8 0 -24 -11 -37 -25 -13 -14 -29 -25 -37 -25 -7 0 -13 -4 -13
-10 0 -5 -7 -10 -15 -10 -8 0 -15 -4 -15 -10 0 -5 -7 -10 -15 -10 -8 0 -15 -4
-15 -10 0 -5 -7 -10 -15 -10 -8 0 -15 -4 -15 -10 0 -5 -5 -10 -11 -10 -6 0
-27 -16 -47 -35 -20 -19 -42 -35 -48 -35 -6 0 -25 -13 -42 -30 -18 -16 -36
-30 -42 -30 -5 0 -10 -4 -10 -10 0 -5 -5 -10 -11 -10 -6 0 -24 -13 -41 -30
-16 -16 -34 -30 -38 -30 -5 0 -25 -16 -44 -35 -20 -19 -40 -35 -46 -35 -5 0
-10 -4 -10 -10 0 -5 -5 -10 -10 -10 -6 0 -28 -15 -48 -34 -20 -19 -50 -45 -67
-58 -16 -12 -31 -26 -33 -30 -2 -5 -8 -8 -14 -8 -5 0 -26 -17 -46 -37 -20 -21
-54 -51 -74 -66 -21 -15 -70 -60 -110 -100 -40 -40 -86 -83 -103 -95 -40 -30
-365 -354 -365 -364 0 -4 -33 -41 -74 -83 -41 -41 -91 -96 -112 -122 -21 -27
-55 -64 -76 -84 -21 -20 -38 -42 -38 -48 0 -6 -4 -11 -10 -11 -5 0 -10 -7 -10
-15 0 -8 -4 -15 -10 -15 -5 0 -10 -6 -10 -12 0 -7 -16 -26 -35 -43 -19 -16
-35 -34 -35 -40 0 -6 -9 -17 -20 -25 -11 -8 -20 -19 -20 -25 0 -6 -9 -17 -20
-25 -11 -8 -20 -19 -20 -25 0 -9 -9 -21 -71 -93 -10 -12 -19 -26 -19 -30 0 -4
-9 -14 -20 -22 -11 -8 -20 -21 -20 -29 0 -7 -8 -21 -19 -30 -10 -9 -25 -29
-34 -46 -8 -16 -25 -40 -36 -52 -12 -12 -21 -27 -21 -33 0 -5 -4 -10 -10 -10
-5 0 -10 -7 -10 -15 0 -8 -4 -15 -10 -15 -5 0 -10 -7 -10 -15 0 -8 -4 -15 -10
-15 -5 0 -10 -7 -10 -15 0 -8 -4 -15 -10 -15 -5 0 -10 -5 -10 -11 0 -6 -20
-39 -45 -73 -25 -35 -45 -69 -45 -75 0 -6 -4 -11 -10 -11 -5 0 -10 -7 -10 -15
0 -8 -4 -15 -10 -15 -5 0 -10 -7 -10 -15 0 -8 -4 -15 -10 -15 -5 0 -10 -9 -10
-20 0 -11 -4 -20 -10 -20 -5 0 -10 -5 -10 -12 0 -6 -11 -26 -25 -44 -14 -18
-25 -37 -25 -43 0 -6 -4 -11 -10 -11 -5 0 -10 -9 -10 -20 0 -11 -4 -20 -10
-20 -5 0 -10 -7 -10 -15 0 -8 -4 -15 -10 -15 -5 0 -10 -9 -10 -20 0 -11 -4
-20 -10 -20 -5 0 -10 -9 -10 -20 0 -11 -3 -20 -7 -20 -5 0 -21 -27 -38 -60
-16 -33 -33 -60 -37 -60 -4 0 -8 -9 -8 -20 0 -11 -4 -20 -10 -20 -5 0 -10 -9
-10 -21 0 -11 -4 -17 -10 -14 -6 4 -10 -5 -10 -19 0 -14 -4 -26 -10 -26 -5 0
-10 -9 -10 -20 0 -11 -4 -20 -10 -20 -5 0 -10 -9 -10 -20 0 -11 -4 -20 -10
-20 -5 0 -10 -6 -10 -13 0 -18 -28 -75 -41 -82 -5 -4 -9 -15 -9 -26 0 -10 -4
-19 -10 -19 -5 0 -10 -9 -10 -20 0 -11 -4 -20 -10 -20 -5 0 -10 -11 -10 -25 0
-14 -4 -25 -10 -25 -5 0 -10 -11 -10 -25 0 -14 -4 -25 -10 -25 -5 0 -10 -9
-10 -20 0 -11 -4 -20 -10 -20 -5 0 -10 -7 -10 -15 0 -15 -3 -24 -34 -82 -9
-17 -16 -38 -16 -47 0 -9 -4 -16 -10 -16 -5 0 -10 -11 -10 -25 0 -14 -4 -25
-10 -25 -5 0 -10 -11 -10 -25 0 -14 -4 -25 -10 -25 -5 0 -10 -11 -10 -25 0
-14 -4 -25 -10 -25 -5 0 -10 -13 -10 -30 0 -16 -4 -30 -10 -30 -5 0 -10 -11
-10 -24 0 -14 -4 -28 -10 -31 -5 -3 -10 -15 -10 -26 0 -19 -2 -26 -33 -87 -9
-19 -17 -42 -17 -53 0 -10 -4 -19 -10 -19 -5 0 -10 -13 -10 -30 0 -16 -4 -30
-10 -30 -5 0 -10 -16 -10 -35 0 -19 -4 -35 -10 -35 -5 0 -10 -16 -10 -35 0
-19 -4 -35 -10 -35 -5 0 -10 -13 -10 -29 0 -17 -4 -33 -10 -36 -5 -3 -10 -19
-10 -35 0 -16 -4 -32 -10 -35 -5 -3 -10 -21 -10 -38 0 -18 -7 -41 -15 -51 -8
-11 -15 -32 -15 -48 0 -15 -4 -28 -10 -28 -5 0 -10 -18 -10 -40 0 -22 -4 -40
-10 -40 -5 0 -10 -20 -10 -45 0 -25 -4 -45 -10 -45 -5 0 -10 -20 -10 -45 0
-25 -4 -45 -10 -45 -5 0 -10 -22 -10 -50 0 -27 -4 -50 -10 -50 -5 0 -10 -22
-10 -50 0 -27 -4 -50 -10 -50 -5 0 -10 -24 -10 -54 0 -30 -4 -58 -10 -61 -5
-3 -10 -26 -10 -51 0 -25 -7 -61 -15 -81 -8 -19 -15 -62 -15 -94 0 -32 -5 -61
-10 -64 -6 -3 -10 -44 -10 -91 0 -49 -4 -84 -10 -84 -6 0 -10 -49 -10 -126 0
-81 -4 -123 -10 -119 -7 4 -10 -128 -10 -390 0 -262 3 -394 10 -390 6 4 10
-27 10 -84 0 -54 4 -91 10 -91 6 0 10 -28 10 -65 0 -37 4 -65 10 -65 6 0 10
-17 10 -39 0 -21 7 -52 15 -67 8 -16 15 -41 15 -56 0 -15 5 -30 10 -33 6 -3
10 -22 10 -41 0 -19 5 -34 10 -34 6 0 10 -16 10 -35 0 -19 5 -35 10 -35 6 0
10 -13 10 -30 0 -16 5 -30 10 -30 6 0 10 -13 10 -30 0 -16 5 -30 10 -30 6 0
10 -11 10 -25 0 -14 5 -25 10 -25 6 0 10 -11 10 -24 0 -13 4 -26 8 -28 11 -4
62 -108 62 -125 0 -7 5 -13 10 -13 6 0 10 -9 10 -20 0 -11 5 -20 10 -20 6 0
10 -7 10 -15 0 -8 5 -15 10 -15 6 0 10 -9 10 -20 0 -11 5 -20 10 -20 6 0 10
-5 10 -10 0 -6 9 -21 21 -33 11 -12 27 -37 36 -55 8 -17 19 -32 24 -32 5 0 9
-7 9 -15 0 -8 5 -15 10 -15 6 0 10 -5 10 -11 0 -6 14 -24 30 -39 17 -15 30
-31 30 -34 0 -18 187 -206 205 -206 2 0 26 -20 52 -45 25 -25 52 -45 58 -45 6
0 17 -9 25 -20 8 -11 20 -20 27 -20 7 0 13 -4 13 -10 0 -5 7 -10 15 -10 8 0
15 -4 15 -10 0 -5 9 -10 20 -10 11 0 20 -4 20 -8 0 -5 16 -14 35 -22 19 -8 35
-17 35 -21 0 -4 11 -10 25 -13 14 -4 25 -11 25 -16 0 -6 9 -10 20 -10 11 0 20
-4 20 -10 0 -5 9 -10 20 -10 11 0 20 -4 20 -10 0 -5 11 -10 25 -10 14 0 25 -4
25 -10 0 -5 11 -10 25 -10 14 0 25 -4 25 -10 0 -5 14 -10 30 -10 17 0 30 -4
30 -10 0 -5 9 -10 20 -10 11 0 28 -4 38 -9 32 -16 87 -33 120 -38 18 -3 35 -9
38 -14 3 -5 25 -9 50 -9 24 0 44 -4 44 -10 0 -6 27 -10 61 -10 37 0 58 -4 54
-10 -4 -6 25 -10 79 -10 51 0 86 -4 86 -10 0 -6 107 -10 300 -10 193 0 300 4
300 10 0 6 44 10 111 10 71 0 108 4 104 10 -4 6 23 10 74 10 47 0 81 4 81 10
0 6 28 10 64 10 36 0 68 5 71 10 3 6 27 10 53 10 26 0 56 7 66 15 11 8 39 15
62 15 24 0 46 4 49 10 3 5 24 10 45 10 21 0 42 5 45 10 3 6 26 10 51 10 24 0
44 5 44 10 0 6 18 10 40 10 22 0 40 5 40 10 0 6 18 10 40 10 22 0 40 5 40 10
0 6 16 10 35 10 19 0 35 5 35 10 0 6 15 10 34 10 19 0 38 5 41 10 3 6 16 10
29 10 12 0 31 7 42 15 10 8 31 15 47 15 15 0 27 5 27 10 0 6 16 10 35 10 19 0
35 5 35 10 0 6 14 10 30 10 17 0 30 5 30 10 0 6 14 10 30 10 17 0 30 5 30 10
0 6 14 10 30 10 17 0 30 5 30 10 0 6 11 10 25 10 14 0 25 5 25 10 0 6 9 10 19
10 11 0 32 6 48 14 15 8 42 20 58 26 17 7 38 16 47 21 10 5 27 9 38 9 11 0 20
5 20 10 0 6 11 10 25 10 14 0 25 5 25 10 0 6 11 10 25 10 14 0 25 5 25 10 0 6
11 10 25 10 14 0 25 5 25 10 0 6 8 10 19 10 10 0 24 7 31 15 7 8 16 13 20 10
4 -3 13 2 20 10 7 8 21 15 31 15 10 0 21 5 24 10 3 6 17 10 31 10 13 0 24 5
24 10 0 6 9 10 20 10 11 0 20 5 20 10 0 6 9 10 20 10 11 0 20 5 20 10 0 6 11
10 25 10 14 0 25 5 25 10 0 6 9 10 20 10 11 0 20 5 20 10 0 6 6 10 14 10 7 0
19 7 26 15 7 8 21 15 31 15 11 0 19 5 19 10 0 6 9 10 20 10 11 0 20 5 20 10 0
6 9 10 20 10 11 0 20 5 20 10 0 6 9 10 20 10 11 0 20 5 20 10 0 6 9 10 20 10
11 0 20 5 20 10 0 6 9 10 20 10 11 0 20 3 20 8 0 4 18 16 40 26 22 11 40 23
40 28 0 4 9 8 20 8 11 0 20 5 20 10 0 6 9 10 20 10 11 0 20 5 20 10 0 6 7 10
15 10 8 0 15 5 15 10 0 6 9 10 20 10 11 0 20 3 20 8 0 4 14 13 32 21 17 8 41
23 53 33 25 22 82 56 108 64 9 4 17 10 17 15 0 5 8 9 18 9 10 0 24 9 32 20 8
11 22 20 32 20 10 0 18 4 18 8 0 4 15 16 33 27 17 10 41 27 51 37 11 10 26 18
33 18 7 0 13 5 13 10 0 6 7 10 15 10 8 0 15 5 15 10 0 6 8 10 18 10 10 0 24 9
32 20 8 11 18 20 23 20 5 0 27 16 50 35 22 19 46 35 52 35 6 0 17 9 25 20 8
11 20 20 27 20 7 0 13 5 13 10 0 6 6 10 14 10 8 0 16 4 18 8 2 4 18 18 36 31
27 19 32 29 32 62 0 21 5 39 10 39 6 0 10 20 10 45 0 25 5 45 10 45 6 0 10 17
10 38 1 20 7 48 15 62 8 14 14 39 15 57 0 17 5 35 10 38 6 3 10 26 10 51 0 43
-1 44 -33 44 -21 0 -38 -7 -47 -20 -8 -11 -22 -20 -32 -20 -10 0 -18 -4 -18
-10 0 -5 -7 -10 -15 -10 -8 0 -15 -4 -15 -10 0 -5 -5 -10 -10 -10 -6 0 -23
-11 -38 -25 -15 -14 -32 -25 -39 -25 -7 0 -13 -4 -13 -10 0 -5 -7 -10 -15 -10
-8 0 -15 -4 -15 -10 0 -5 -8 -10 -18 -10 -10 0 -24 -9 -32 -20 -8 -11 -22 -20
-32 -20 -10 0 -18 -4 -18 -10 0 -5 -5 -10 -10 -10 -6 0 -21 -9 -33 -21 -12
-11 -37 -27 -54 -36 -18 -8 -33 -19 -33 -24 0 -5 -9 -9 -20 -9 -11 0 -20 -4
-20 -10 0 -5 -7 -10 -15 -10 -8 0 -15 -4 -15 -10 0 -5 -9 -10 -20 -10 -11 0
-20 -4 -20 -10 0 -5 -7 -10 -15 -10 -8 0 -15 -4 -15 -10 0 -5 -7 -10 -15 -10
-8 0 -15 -3 -15 -8 0 -8 -12 -15 -79 -47 -22 -11 -41 -23 -41 -27 0 -5 -7 -8
-15 -8 -8 0 -15 -4 -15 -10 0 -5 -9 -10 -20 -10 -11 0 -20 -4 -20 -10 0 -5 -9
-10 -20 -10 -11 0 -20 -4 -20 -10 0 -5 -7 -10 -15 -10 -8 0 -15 -3 -15 -7 0
-5 -18 -17 -40 -27 -22 -11 -40 -23 -40 -28 0 -4 -9 -8 -20 -8 -11 0 -20 -4
-20 -10 0 -5 -11 -10 -25 -10 -14 0 -25 -4 -25 -10 0 -5 -9 -10 -20 -10 -11 0
-20 -4 -20 -10 0 -5 -9 -10 -20 -10 -11 0 -20 -4 -20 -10 0 -5 -9 -10 -20 -10
-11 0 -20 -4 -20 -10 0 -5 -5 -10 -10 -10 -6 0 -28 -11 -50 -25 -22 -14 -46
-25 -55 -25 -8 0 -15 -4 -15 -10 0 -5 -9 -10 -20 -10 -11 0 -20 -4 -20 -10 0
-5 -11 -10 -25 -10 -14 0 -25 -4 -25 -10 0 -5 -9 -10 -20 -10 -11 0 -20 -4
-20 -10 0 -5 -11 -10 -25 -10 -14 0 -25 -4 -25 -10 0 -5 -11 -10 -25 -10 -14
0 -25 -4 -25 -10 0 -5 -8 -10 -19 -10 -10 0 -24 -7 -31 -15 -7 -8 -19 -15 -26
-15 -14 0 -25 -4 -71 -28 -13 -7 -32 -12 -43 -12 -11 0 -20 -4 -20 -10 0 -5
-13 -10 -30 -10 -16 0 -30 -4 -30 -10 0 -5 -11 -10 -25 -10 -14 0 -25 -4 -25
-10 0 -5 -13 -10 -30 -10 -16 0 -30 -4 -30 -10 0 -5 -11 -10 -25 -10 -25 0
-31 -2 -93 -33 -19 -9 -47 -17 -63 -17 -16 0 -29 -4 -29 -10 0 -5 -16 -10 -35
-10 -19 0 -35 -4 -35 -10 0 -5 -20 -10 -45 -10 -25 0 -45 -4 -45 -10 0 -5 -21
-10 -46 -10 -27 0 -43 -4 -39 -10 4 -6 -13 -10 -44 -10 -28 0 -51 -4 -51 -10
0 -5 -25 -10 -55 -10 -30 0 -55 -4 -55 -10 0 -6 -26 -10 -58 -10 -32 0 -63 -5
-69 -11 -19 -19 -189 -31 -502 -35 -194 -3 -298 -1 -305 6 -5 5 -33 10 -61 10
-27 1 -61 7 -75 15 -14 8 -42 14 -62 15 -21 0 -38 5 -38 10 0 6 -16 10 -35 10
-19 0 -35 5 -35 10 0 6 -13 10 -30 10 -16 0 -30 5 -30 10 0 6 -13 10 -30 10
-16 0 -30 5 -30 10 0 6 -11 10 -25 10 -14 0 -25 5 -25 10 0 6 -11 10 -25 10
-14 0 -25 5 -25 10 0 6 -8 10 -19 10 -10 0 -24 7 -31 15 -7 8 -19 15 -26 15
-8 0 -14 4 -14 8 0 5 -16 14 -35 22 -19 8 -35 17 -35 22 0 4 -7 8 -15 8 -8 0
-15 5 -15 10 0 6 -7 10 -15 10 -8 0 -15 5 -15 10 0 6 -6 10 -12 10 -7 0 -26
12 -43 26 -16 14 -40 34 -53 45 -12 10 -25 19 -28 19 -8 0 -155 152 -189 195
-16 22 -40 49 -53 61 -12 13 -22 29 -22 36 0 8 -9 20 -20 28 -11 8 -20 22 -20
32 0 10 -4 18 -10 18 -5 0 -10 7 -10 15 0 8 -4 15 -10 15 -5 0 -10 7 -10 15 0
8 -4 15 -8 15 -5 0 -17 18 -28 40 -10 22 -22 40 -26 40 -5 0 -8 9 -8 20 0 11
-4 20 -10 20 -5 0 -10 9 -10 20 0 11 -4 20 -10 20 -5 0 -10 11 -10 25 0 14 -4
25 -10 25 -5 0 -10 11 -10 25 0 14 -4 25 -10 25 -5 0 -10 11 -10 25 0 14 -4
25 -10 25 -5 0 -10 9 -10 19 0 11 -8 34 -17 53 -31 62 -33 68 -33 92 0 14 -5
28 -10 31 -6 3 -10 22 -10 41 0 19 -4 34 -10 34 -5 0 -10 20 -10 45 0 25 -4
45 -10 45 -5 0 -10 23 -10 50 0 28 -4 50 -10 50 -6 0 -10 30 -10 70 0 39 -4
70 -9 70 -15 0 -22 175 -22 500 0 354 9 580 22 580 5 0 9 44 9 100 0 60 4 100
10 100 6 0 10 32 10 75 0 43 4 75 10 75 6 0 10 30 10 70 0 40 4 70 10 70 6 0
10 24 10 54 0 30 4 58 10 61 5 3 10 28 10 55 0 27 5 52 10 55 5 3 10 21 10 38
0 18 7 45 15 61 8 15 15 46 15 67 0 22 5 39 10 39 6 0 10 18 10 40 0 22 5 40
10 40 6 0 10 20 10 45 0 25 5 45 10 45 6 0 10 18 10 40 0 22 5 40 10 40 6 0
10 16 10 35 0 19 5 35 10 35 6 0 10 15 10 34 0 19 5 38 10 41 5 3 10 18 10 33
0 15 7 36 15 46 8 11 15 30 15 42 0 13 5 26 10 29 6 3 10 19 10 36 0 16 5 29
10 29 6 0 10 14 10 30 0 17 5 30 10 30 6 0 10 14 10 30 0 17 5 30 10 30 6 0
10 14 10 30 0 17 5 30 10 30 6 0 10 14 10 30 0 17 5 30 10 30 6 0 10 11 10 24
0 14 5 28 10 31 6 3 10 17 10 29 0 13 7 29 15 36 8 7 15 23 15 36 0 13 5 24
10 24 6 0 10 11 10 25 0 14 5 25 10 25 6 0 10 11 10 25 0 14 5 25 10 25 6 0
10 11 10 25 0 14 5 25 10 25 6 0 10 11 10 25 0 14 5 25 10 25 6 0 10 11 10 25
0 14 5 25 10 25 6 0 10 5 10 12 0 18 33 88 42 88 4 0 8 9 8 20 0 11 5 20 10
20 6 0 10 11 10 25 0 14 5 25 10 25 6 0 10 9 10 20 0 11 5 20 10 20 6 0 10 11
10 25 0 14 5 25 10 25 6 0 10 9 10 20 0 11 5 20 10 20 6 0 10 8 11 18 0 9 9
31 20 47 11 17 22 38 25 48 4 9 10 17 15 17 5 0 9 9 9 20 0 11 5 20 10 20 6 0
10 9 10 20 0 11 5 20 10 20 6 0 10 9 10 20 0 11 5 20 10 20 6 0 10 7 10 15 0
8 5 15 10 15 6 0 10 9 10 20 0 11 5 20 10 20 6 0 10 7 10 15 0 8 16 37 35 64
19 26 35 53 35 60 0 6 5 11 10 11 6 0 10 9 10 20 0 11 5 20 10 20 6 0 10 7 10
15 0 8 5 15 10 15 6 0 10 9 10 20 0 11 4 20 9 20 5 0 16 15 24 33 9 17 25 42
36 54 12 12 21 27 21 33 0 5 5 10 10 10 6 0 10 7 10 16 0 9 8 24 18 33 10 9
22 31 28 49 13 46 29 45 31 -2 1 -22 7 -44 13 -50 5 -5 10 -25 10 -42 0 -18 5
-36 10 -39 6 -3 10 -24 10 -46 0 -21 5 -39 10 -39 6 0 10 -18 10 -40 0 -22 5
-40 10 -40 6 0 10 -20 10 -45 0 -25 5 -45 10 -45 6 0 10 -18 10 -40 0 -22 5
-40 10 -40 6 0 10 -18 10 -39 0 -22 5 -43 10 -46 5 -3 10 -21 10 -38 0 -18 7
-41 15 -51 8 -11 15 -34 15 -52 0 -18 4 -36 10 -39 6 -3 10 -21 10 -40 0 -19
5 -37 10 -40 6 -3 10 -24 10 -46 0 -21 5 -39 10 -39 6 0 10 -18 10 -40 0 -22
5 -40 10 -40 6 0 10 -20 10 -45 0 -25 5 -45 10 -45 6 0 10 -18 10 -40 0 -22 5
-40 10 -40 6 0 10 -18 10 -39 0 -22 5 -43 10 -46 6 -3 10 -18 10 -33 1 -15 7
-38 15 -52 8 -14 14 -39 15 -57 0 -17 5 -35 10 -38 6 -3 10 -24 10 -46 0 -21
5 -39 10 -39 6 0 10 -18 10 -40 0 -22 5 -40 10 -40 6 0 10 -18 10 -40 0 -22 5
-40 10 -40 6 0 10 -20 10 -45 0 -25 5 -45 10 -45 6 0 10 -18 10 -40 0 -22 5
-40 10 -40 6 0 10 -17 10 -38 0 -21 5 -43 11 -49 12 -12 26 -68 36 -136 3 -20
9 -40 14 -43 5 -3 9 -23 9 -45 0 -21 5 -39 10 -39 6 0 10 -18 10 -40 0 -22 5
-40 10 -40 6 0 10 -20 10 -45 0 -25 5 -45 10 -45 6 0 10 -18 10 -40 0 -22 5
-40 10 -40 6 0 10 -18 10 -40 0 -22 5 -40 10 -40 6 0 10 -15 10 -32 1 -18 7
-44 15 -58 8 -14 14 -40 15 -57 0 -18 5 -33 10 -33 6 0 10 -18 10 -40 0 -22 5
-40 10 -40 6 0 10 -20 10 -45 0 -25 5 -45 10 -45 6 0 10 -21 10 -46 0 -27 4
-43 10 -39 6 4 10 -12 10 -39 0 -25 5 -46 10 -46 6 0 10 -18 10 -40 0 -22 5
-40 10 -40 6 0 10 -15 10 -32 1 -18 7 -44 15 -58 8 -14 14 -37 15 -52 0 -15 4
-30 10 -33 5 -3 10 -24 10 -46 0 -21 5 -39 10 -39 6 0 10 -18 10 -40 0 -22 5
-40 10 -40 6 0 10 -20 10 -45 0 -25 5 -45 10 -45 6 0 10 -18 10 -40 0 -22 5
-40 10 -40 6 0 10 -20 10 -45 0 -25 5 -45 10 -45 6 0 10 -18 10 -40 0 -22 5
-40 10 -40 6 0 10 -12 10 -27 0 -16 7 -41 15 -57 8 -15 15 -41 15 -57 0 -15 5
-31 10 -34 6 -3 10 -24 10 -46 0 -21 5 -39 10 -39 6 0 10 -21 10 -46 0 -27 4
-43 10 -39 6 4 10 -12 10 -39 0 -25 5 -46 10 -46 6 0 10 -18 10 -40 0 -22 5
-40 10 -40 6 0 10 -20 10 -45 0 -25 5 -45 10 -45 6 0 10 -13 10 -29 0 -16 7
-42 15 -57 8 -16 15 -40 15 -55 0 -14 4 -29 9 -35 5 -5 11 -25 13 -44 l3 -35
425 0 425 0 3 32 c2 18 7 33 13 33 5 0 9 18 9 40 0 22 5 40 10 40 6 0 10 20
10 45 0 25 5 45 10 45 6 0 10 18 10 39 0 22 4 43 10 46 6 3 10 21 10 39 0 18
7 41 15 52 8 10 15 36 15 57 0 20 5 37 10 37 6 0 10 18 10 40 0 22 5 40 10 40
6 0 10 21 10 46 0 27 4 43 10 39 6 -4 10 12 10 39 0 25 5 46 10 46 6 0 10 20
10 45 0 25 5 45 10 45 6 0 10 18 10 39 0 22 4 43 10 46 6 3 10 21 10 38 1 18
7 43 15 57 8 14 14 37 15 52 0 15 5 30 10 33 6 3 10 24 10 46 0 21 5 39 10 39
6 0 10 20 10 45 0 25 5 45 10 45 6 0 10 18 10 40 0 22 5 40 10 40 6 0 10 20
10 45 0 25 5 45 10 45 6 0 10 18 10 39 0 22 5 43 10 46 6 3 10 24 10 46 0 21
5 39 10 39 6 0 10 15 10 33 1 17 7 43 15 57 8 14 14 40 15 58 0 17 5 32 10 32
6 0 10 20 10 45 0 25 5 45 10 45 6 0 10 18 10 40 0 22 5 40 10 40 6 0 10 21
10 46 0 27 4 43 10 39 6 -4 10 12 10 39 0 25 5 46 10 46 6 0 10 20 10 45 0 25
5 45 10 45 6 0 10 13 10 29 0 16 7 45 15 64 8 20 15 48 15 62 0 14 5 25 10 25
6 0 10 18 10 40 0 22 5 40 10 40 6 0 10 20 10 45 0 25 5 45 10 45 6 0 10 21
10 46 0 27 4 43 10 39 6 -4 10 12 10 39 0 25 5 46 10 46 6 0 10 20 10 45 0 25
5 45 10 45 6 0 10 18 10 39 0 22 5 43 10 46 6 3 10 18 10 33 0 15 7 40 15 56
8 15 15 41 15 57 0 15 5 31 10 34 6 3 10 24 10 46 0 21 5 39 10 39 6 0 10 21
10 46 0 27 4 43 10 39 6 -4 10 12 10 39 0 25 5 46 10 46 6 0 10 20 10 45 0 25
5 45 10 45 6 0 10 18 10 39 0 22 5 43 10 46 6 3 10 19 10 34 0 16 7 42 15 57
8 16 15 41 15 56 0 15 5 30 10 33 6 3 10 24 10 46 0 21 5 39 10 39 6 0 10 20
10 45 0 27 5 45 11 45 8 0 9 13 5 39 -3 22 -2 42 3 46 15 9 31 -29 31 -74 0
-23 5 -41 10 -41 6 0 10 -15 10 -34 0 -18 7 -47 15 -62 8 -16 15 -41 15 -56 0
-16 5 -28 10 -28 6 0 10 -20 10 -45 0 -25 5 -45 10 -45 6 0 10 -20 10 -45 0
-25 5 -45 10 -45 6 0 10 -18 10 -40 0 -22 5 -40 10 -40 6 0 10 -20 10 -45 0
-25 5 -45 10 -45 6 0 10 -18 10 -40 0 -22 5 -40 10 -40 6 0 10 -20 10 -45 0
-25 5 -45 10 -45 6 0 10 -15 10 -33 0 -18 7 -42 15 -53 8 -10 15 -36 15 -56 0
-20 5 -40 10 -43 6 -3 10 -24 10 -46 0 -21 5 -39 10 -39 6 0 10 -20 10 -45 0
-25 5 -45 10 -45 6 0 10 -21 10 -46 0 -27 4 -43 10 -39 6 4 10 -12 10 -39 0
-25 5 -46 10 -46 6 0 10 -18 10 -39 0 -22 5 -43 10 -46 6 -3 10 -19 10 -34 0
-16 7 -42 15 -57 8 -16 15 -41 15 -56 0 -15 5 -30 10 -33 6 -3 10 -24 10 -45
0 -21 5 -42 10 -45 6 -3 10 -24 10 -46 0 -21 5 -39 10 -39 6 0 10 -20 10 -45
0 -25 5 -45 10 -45 6 0 10 -18 10 -40 0 -22 5 -40 10 -40 6 0 10 -20 10 -45 0
-25 5 -45 10 -45 6 0 10 -18 10 -39 0 -22 5 -43 10 -46 6 -3 10 -18 10 -33 0
-15 7 -40 15 -56 8 -15 15 -44 15 -62 0 -19 5 -34 10 -34 6 0 10 -18 10 -39 0
-22 5 -43 10 -46 6 -3 10 -24 10 -46 0 -21 5 -39 10 -39 6 0 10 -20 10 -45 0
-25 5 -45 10 -45 6 0 10 -21 10 -46 0 -27 4 -43 10 -39 6 4 10 -12 10 -39 0
-25 5 -46 10 -46 6 0 10 -17 10 -37 0 -21 7 -47 15 -57 8 -11 15 -34 15 -52 0
-18 5 -36 10 -39 6 -3 10 -24 10 -46 0 -21 5 -39 10 -39 6 0 10 -20 10 -45 0
-25 5 -45 10 -45 6 0 10 -18 10 -40 0 -22 5 -40 10 -40 6 0 10 -20 10 -45 0
-25 5 -45 10 -45 6 0 10 -20 10 -45 0 -25 5 -45 10 -45 6 0 10 -18 10 -40 0
-22 5 -40 10 -40 6 0 10 -15 10 -32 1 -18 7 -44 15 -58 8 -14 14 -39 15 -57 0
-17 5 -35 10 -38 6 -3 10 -24 10 -46 0 -21 5 -39 10 -39 6 0 10 -20 10 -45 0
-25 5 -45 10 -45 6 0 10 -20 10 -45 0 -25 5 -45 10 -45 6 0 10 -13 10 -29 0
-65 -30 -61 436 -61 l424 0 0 23 c1 12 7 33 15 47 8 14 14 37 15 52 0 15 5 30
10 33 6 3 10 24 10 46 0 21 5 39 10 39 6 0 10 18 10 40 0 22 5 40 10 40 6 0
10 20 10 45 0 25 5 45 10 45 6 0 10 18 10 40 0 22 5 40 10 40 6 0 10 18 10 39
0 22 5 43 10 46 6 3 10 21 10 40 0 19 5 37 10 40 6 3 10 18 10 33 0 15 7 40
15 56 8 15 15 41 15 57 0 16 5 29 10 29 6 0 10 21 10 46 0 27 4 43 10 39 6 -4
10 12 10 39 0 25 5 46 10 46 6 0 10 18 10 40 0 22 5 40 10 40 6 0 10 20 10 45
0 25 5 45 10 45 6 0 10 18 10 39 0 22 5 43 10 46 6 3 10 19 10 34 0 16 7 42
15 57 8 16 15 41 15 57 0 15 5 27 10 27 6 0 10 18 10 40 0 22 5 40 10 40 6 0
10 20 10 45 0 25 5 45 10 45 6 0 10 18 10 40 0 22 5 40 10 40 6 0 10 18 10 40
0 22 5 40 10 40 6 0 10 18 10 39 0 22 5 43 10 46 6 3 10 24 10 45 0 21 5 42
10 45 6 3 10 19 10 34 0 15 7 36 15 47 8 10 15 36 15 57 0 20 5 37 10 37 6 0
10 18 10 40 0 22 5 40 10 40 6 0 10 18 10 40 0 22 5 40 10 40 6 0 10 20 10 45
0 25 5 45 10 45 6 0 10 18 10 40 0 22 5 40 10 40 6 0 10 18 10 39 0 22 5 43
10 46 6 3 10 19 10 34 0 16 7 42 15 57 8 16 15 41 15 56 0 15 5 30 10 33 6 3
10 22 10 41 0 19 5 34 10 34 6 0 10 20 10 45 0 25 5 45 10 45 6 0 10 18 10 40
0 22 5 40 10 40 6 0 10 20 10 45 0 25 5 45 10 45 6 0 10 18 10 40 0 22 5 40
10 40 6 0 10 16 10 35 0 19 4 43 9 53 17 34 41 120 41 146 0 14 5 26 10 26 6
0 10 18 10 40 0 22 5 40 10 40 6 0 10 20 10 45 0 25 5 45 10 45 6 0 10 18 10
40 0 22 5 40 10 40 6 0 10 20 10 45 0 25 5 45 10 45 6 0 10 18 10 40 0 22 5
40 10 40 6 0 10 17 10 38 0 20 7 46 15 56 8 11 15 32 15 47 0 15 5 31 10 34 6
3 10 24 10 46 0 21 5 39 10 39 6 0 10 18 10 40 0 22 5 40 10 40 6 0 10 20 10
45 0 25 5 45 10 45 6 0 10 18 10 40 0 22 5 40 10 40 6 0 10 18 10 39 0 22 5
43 10 46 6 3 10 21 10 40 0 19 5 37 10 40 6 3 10 18 10 33 0 15 7 40 15 56 8
15 15 40 15 55 0 15 5 32 11 38 5 5 9 30 7 54 l-3 44 -340 3 -340 2 -13 -37
c-8 -21 -16 -55 -19 -75 -3 -21 -9 -38 -14 -38 -5 0 -9 -18 -9 -40 0 -22 -4
-40 -10 -40 -5 0 -10 -21 -10 -46 0 -27 -4 -43 -10 -39 -6 4 -10 -12 -10 -39
0 -25 -4 -46 -10 -46 -5 0 -10 -20 -10 -45 0 -25 -4 -45 -10 -45 -5 0 -10 -18
-10 -39 0 -22 -4 -43 -10 -46 -5 -3 -10 -19 -10 -34 0 -16 -7 -42 -15 -57 -8
-16 -15 -41 -15 -56 0 -15 -4 -30 -10 -33 -5 -3 -10 -24 -10 -46 0 -21 -4 -39
-10 -39 -5 0 -10 -18 -10 -40 0 -22 -4 -40 -10 -40 -5 0 -10 -21 -10 -46 0
-27 -4 -43 -10 -39 -6 4 -10 -12 -10 -39 0 -25 -4 -46 -10 -46 -5 0 -10 -18
-10 -39 0 -22 -4 -43 -10 -46 -5 -3 -10 -22 -10 -41 0 -19 -4 -42 -9 -52 -17
-34 -41 -120 -41 -146 0 -14 -4 -26 -10 -26 -5 0 -10 -18 -10 -40 0 -22 -4
-40 -10 -40 -5 0 -10 -20 -10 -45 0 -25 -4 -45 -10 -45 -5 0 -10 -18 -10 -40
0 -22 -4 -40 -10 -40 -5 0 -10 -20 -10 -45 0 -25 -4 -45 -10 -45 -5 0 -10 -18
-10 -39 0 -22 -4 -43 -10 -46 -5 -3 -10 -19 -10 -34 0 -16 -7 -42 -15 -57 -8
-16 -15 -41 -15 -56 0 -15 -4 -30 -10 -33 -5 -3 -10 -24 -10 -46 0 -21 -4 -39
-10 -39 -5 0 -10 -18 -10 -40 0 -22 -4 -40 -10 -40 -5 0 -10 -20 -10 -45 0
-25 -4 -45 -10 -45 -5 0 -10 -18 -10 -40 0 -22 -4 -40 -10 -40 -5 0 -10 -18
-10 -39 0 -22 -4 -42 -9 -45 -5 -3 -11 -23 -14 -43 -9 -60 -23 -116 -35 -140
-7 -12 -12 -35 -12 -52 0 -17 -4 -31 -10 -31 -5 0 -10 -18 -10 -40 0 -22 -4
-40 -10 -40 -5 0 -10 -20 -10 -45 0 -25 -4 -45 -10 -45 -5 0 -10 -20 -10 -45
0 -25 -4 -45 -10 -45 -5 0 -10 -18 -10 -40 0 -22 -4 -40 -10 -40 -5 0 -10 -18
-10 -39 0 -22 -4 -43 -10 -46 -5 -3 -10 -19 -10 -34 0 -16 -7 -42 -15 -57 -8
-16 -15 -41 -15 -56 0 -15 -4 -30 -10 -33 -5 -3 -10 -24 -10 -46 0 -21 -4 -39
-10 -39 -5 0 -10 -18 -10 -40 0 -22 -4 -40 -10 -40 -5 0 -10 -20 -10 -45 0
-25 -4 -45 -10 -45 -5 0 -10 -18 -10 -40 0 -22 -4 -40 -10 -40 -5 0 -10 -20
-10 -45 0 -25 -4 -45 -10 -45 -5 0 -10 -13 -10 -29 0 -56 -12 -92 -29 -89 -12
3 -15 13 -13 46 2 26 -1 42 -7 42 -6 0 -11 18 -11 40 0 22 -4 40 -10 40 -5 0
-10 20 -10 45 0 25 -4 45 -10 45 -5 0 -10 18 -10 40 0 22 -4 40 -10 40 -5 0
-10 21 -10 46 0 27 -4 43 -10 39 -6 -4 -10 10 -10 34 0 22 -4 43 -10 46 -5 3
-10 18 -10 33 0 15 -7 40 -15 56 -8 15 -15 41 -15 57 0 15 -4 31 -10 34 -5 3
-10 24 -10 46 0 21 -4 39 -10 39 -5 0 -10 20 -10 45 0 25 -4 45 -10 45 -5 0
-10 18 -10 40 0 22 -4 40 -10 40 -5 0 -10 20 -10 45 0 25 -4 45 -10 45 -5 0
-10 18 -10 40 0 22 -4 40 -10 40 -5 0 -10 15 -10 33 -1 17 -7 43 -15 57 -8 14
-14 37 -15 52 0 15 -4 30 -10 33 -5 3 -10 24 -10 45 0 21 -4 42 -10 45 -5 3
-10 24 -10 46 0 21 -4 39 -10 39 -5 0 -10 18 -10 40 0 22 -4 40 -10 40 -5 0
-10 20 -10 45 0 25 -4 45 -10 45 -5 0 -10 18 -10 40 0 22 -4 40 -10 40 -5 0
-10 18 -10 39 0 22 -4 43 -10 46 -5 3 -10 18 -10 33 -1 15 -7 38 -15 52 -8 14
-14 39 -15 57 0 17 -4 35 -10 38 -5 3 -10 24 -10 46 0 21 -4 39 -10 39 -5 0
-10 18 -10 40 0 22 -4 40 -10 40 -5 0 -10 20 -10 45 0 25 -4 45 -10 45 -5 0
-10 18 -10 40 0 22 -4 40 -10 40 -5 0 -10 18 -10 39 0 22 -4 43 -10 46 -5 3
-10 21 -10 38 0 18 -7 41 -15 51 -8 11 -15 34 -15 52 0 18 -4 36 -10 39 -5 3
-10 24 -10 46 0 21 -4 39 -10 39 -5 0 -10 18 -10 40 0 22 -4 40 -10 40 -5 0
-10 20 -10 45 0 25 -4 45 -10 45 -5 0 -10 18 -10 40 0 22 -4 40 -10 40 -5 0
-10 20 -10 45 0 25 -4 45 -10 45 -5 0 -10 18 -10 40 0 22 -4 40 -10 40 -5 0
-10 15 -10 33 0 18 -7 42 -15 53 -8 10 -15 36 -15 57 0 20 -4 37 -10 37 -5 0
-10 18 -10 39 0 22 -4 43 -10 46 -5 3 -10 24 -10 46 0 21 -4 39 -10 39 -5 0
-10 21 -10 46 0 27 -4 43 -10 39 -6 -4 -10 12 -10 39 0 25 -4 46 -10 46 -5 0
-10 18 -10 40 0 22 -4 40 -10 40 -5 0 -10 15 -10 34 0 18 -7 47 -15 62 -8 16
-15 39 -15 52 0 52 0 52 -399 52 -361 0 -371 -1 -371 -19 0 -11 -4 -23 -10
-26 -5 -3 -10 -19 -10 -34 0 -16 -7 -42 -15 -57 -8 -16 -15 -41 -15 -56 0 -15
-4 -30 -10 -33 -5 -3 -10 -24 -10 -46 0 -21 -4 -39 -10 -39 -5 0 -10 -18 -10
-40 0 -22 -4 -40 -10 -40 -5 0 -10 -20 -10 -45 0 -25 -4 -45 -10 -45 -5 0 -10
-18 -10 -40 0 -22 -4 -40 -10 -40 -5 0 -10 -20 -10 -45 0 -25 -4 -45 -10 -45
-5 0 -10 -18 -10 -39 0 -22 -4 -43 -10 -46 -5 -3 -10 -18 -10 -33 -1 -15 -7
-38 -15 -52 -8 -14 -14 -40 -15 -57 0 -18 -4 -33 -10 -33 -5 0 -10 -21 -10
-46 0 -27 -4 -43 -10 -39 -6 4 -10 -12 -10 -39 0 -25 -4 -46 -10 -46 -5 0 -10
-18 -10 -40 0 -22 -4 -40 -10 -40 -5 0 -10 -20 -10 -45 0 -25 -4 -45 -10 -45
-5 0 -10 -18 -10 -39 0 -22 -4 -43 -10 -46 -5 -3 -10 -19 -10 -34 0 -16 -7
-42 -15 -57 -8 -16 -15 -41 -15 -56 0 -15 -4 -30 -10 -33 -5 -3 -10 -24 -10
-46 0 -21 -4 -39 -10 -39 -5 0 -10 -18 -10 -40 0 -22 -4 -40 -10 -40 -5 0 -10
-21 -10 -46 0 -27 -4 -43 -10 -39 -6 4 -10 -12 -10 -39 0 -25 -4 -46 -10 -46
-5 0 -10 -20 -10 -45 0 -25 -4 -45 -10 -45 -5 0 -10 -18 -10 -39 0 -22 -4 -43
-10 -46 -5 -3 -10 -18 -10 -33 -1 -15 -7 -38 -15 -52 -8 -14 -14 -40 -15 -57
0 -18 -4 -33 -10 -33 -5 0 -10 -21 -10 -46 0 -27 -4 -43 -10 -39 -6 4 -10 -12
-10 -39 0 -25 -4 -46 -10 -46 -5 0 -10 -21 -10 -46 0 -27 -4 -43 -10 -39 -6 4
-10 -12 -10 -39 0 -25 -4 -46 -10 -46 -5 0 -10 -18 -10 -39 0 -22 -4 -43 -10
-46 -5 -3 -10 -21 -10 -38 -1 -18 -7 -43 -15 -57 -8 -14 -14 -37 -15 -52 0
-15 -4 -30 -10 -33 -5 -3 -10 -24 -10 -46 0 -21 -4 -39 -10 -39 -5 0 -10 -18
-10 -40 0 -22 -4 -40 -10 -40 -5 0 -10 -20 -10 -45 0 -25 -4 -45 -10 -45 -5 0
-10 -18 -10 -40 0 -22 -4 -40 -10 -40 -5 0 -10 -20 -10 -45 0 -25 -4 -45 -10
-45 -5 0 -10 -18 -10 -39 0 -22 -4 -43 -10 -46 -5 -3 -10 -18 -10 -33 -1 -15
-7 -38 -15 -52 -8 -14 -14 -40 -15 -57 0 -18 -4 -33 -10 -33 -5 0 -10 -18 -10
-40 0 -22 -4 -40 -10 -40 -5 0 -10 -20 -10 -45 0 -25 -4 -45 -10 -45 -5 0 -10
-18 -10 -40 0 -22 -4 -40 -8 -40 -5 0 -13 -37 -18 -82 -13 -123 -29 -104 -50
60 -4 23 -10 42 -15 42 -5 0 -9 18 -9 39 0 22 -4 43 -10 46 -5 3 -10 24 -10
46 0 21 -4 39 -10 39 -5 0 -10 18 -10 40 0 22 -4 40 -10 40 -5 0 -10 20 -10
45 0 25 -4 45 -10 45 -5 0 -10 18 -10 40 0 22 -4 40 -10 40 -5 0 -10 17 -10
38 0 20 -7 46 -15 56 -8 11 -15 34 -15 52 0 18 -4 36 -10 39 -5 3 -10 21 -10
40 0 19 -4 37 -10 40 -5 3 -10 24 -10 46 0 21 -4 39 -10 39 -5 0 -10 21 -10
46 0 27 -4 43 -10 39 -6 -4 -10 12 -10 39 0 25 -4 46 -10 46 -5 0 -10 18 -10
40 0 22 -4 40 -10 40 -5 0 -10 18 -10 39 0 22 -4 43 -10 46 -5 3 -10 18 -10
33 0 15 -7 40 -15 56 -8 15 -15 41 -15 57 0 15 -4 31 -10 34 -5 3 -10 24 -10
46 0 21 -4 39 -10 39 -5 0 -10 18 -10 40 0 22 -4 40 -10 40 -5 0 -10 20 -10
45 0 25 -4 45 -10 45 -5 0 -10 18 -10 40 0 22 -4 40 -10 40 -5 0 -10 20 -10
45 0 25 -4 45 -10 45 -5 0 -10 15 -10 33 -1 17 -7 43 -15 57 -8 14 -14 37 -15
52 0 15 -4 30 -10 33 -5 3 -10 24 -10 46 0 21 -4 39 -10 39 -5 0 -10 20 -10
45 0 25 -4 45 -10 45 -5 0 -10 18 -10 40 0 22 -4 40 -10 40 -5 0 -10 20 -10
45 0 25 -4 45 -10 45 -5 0 -10 18 -10 40 0 22 -4 40 -10 40 -5 0 -10 18 -10
39 0 22 -5 43 -10 46 -5 3 -10 18 -10 33 -1 15 -7 38 -15 52 -8 14 -14 39 -15
57 0 17 -4 35 -10 38 -5 3 -10 24 -10 46 0 21 -4 39 -10 39 -5 0 -10 18 -10
40 0 22 -4 40 -10 40 -5 0 -10 21 -10 46 0 27 -4 43 -10 39 -6 -4 -10 12 -10
39 0 25 -4 46 -10 46 -5 0 -10 18 -10 39 0 22 -4 43 -10 46 -5 3 -10 19 -10
34 0 16 -7 42 -15 57 -8 16 -15 41 -15 56 0 15 -4 30 -10 33 -5 3 -10 24 -10
46 0 21 -4 39 -10 39 -5 0 -10 18 -10 40 0 22 -4 40 -10 40 -5 0 -10 20 -10
45 0 25 -4 45 -10 45 -5 0 -10 18 -10 40 0 22 -4 40 -10 40 -5 0 -10 20 -10
45 0 25 -4 45 -10 45 -5 0 -10 13 -10 29 0 16 -8 43 -18 60 l-17 31 -295 0
c-162 0 -301 0 -307 0 -21 0 -15 16 12 30 14 7 25 19 25 27 0 7 5 13 10 13 6
0 10 7 10 15 0 8 5 15 10 15 6 0 10 7 10 15 0 8 4 15 8 15 4 0 15 12 24 28 10
15 31 41 48 59 16 18 30 37 30 42 0 6 5 11 10 11 6 0 10 4 10 10 0 5 16 27 35
47 19 20 35 41 35 45 0 5 23 31 50 58 28 27 50 54 50 60 0 5 5 10 10 10 6 0
10 5 10 11 0 11 473 489 484 489 8 0 38 25 92 78 25 23 49 42 54 42 5 0 25 16
44 35 20 19 41 35 48 35 8 0 20 9 28 20 8 11 18 20 22 20 7 0 32 19 72 55 6 6
23 16 38 24 15 8 37 22 47 33 11 10 27 18 36 18 8 0 15 5 15 10 0 6 7 10 15
10 8 0 15 5 15 10 0 6 6 10 14 10 8 0 17 7 20 16 4 9 9 14 12 11 5 -5 61 27
91 53 7 5 19 10 28 10 8 0 15 5 15 10 0 6 9 10 20 10 11 0 20 5 20 10 0 6 9
10 20 10 11 0 20 5 20 10 0 6 9 10 20 10 11 0 20 5 20 10 0 6 9 10 19 10 11 0
21 4 23 8 4 11 108 62 125 62 7 0 13 5 13 10 0 6 14 10 30 10 17 0 30 5 30 10
0 6 11 10 25 10 14 0 25 5 25 10 0 6 14 10 30 10 17 0 30 5 30 10 0 6 11 10
24 10 14 0 28 5 31 10 3 6 17 10 29 10 13 0 29 7 36 15 7 8 27 15 46 15 18 0
36 5 39 10 3 6 21 10 40 10 19 0 37 5 40 10 3 6 26 10 51 10 24 0 44 5 44 10
0 6 27 10 60 10 33 0 60 4 60 10 0 6 42 10 106 10 67 0 103 4 99 10 -4 6 42
10 130 10 88 0 134 -4 130 -10 -4 -6 27 -10 84 -10 54 0 91 -4 91 -10 0 -5 23
-10 50 -10 28 0 50 -4 50 -10 0 -5 16 -10 35 -10 19 0 35 -4 35 -10 0 -5 14
-10 30 -10 17 0 30 -4 30 -10 0 -5 8 -10 19 -10 10 0 24 -7 31 -15 7 -8 21
-15 31 -15 11 0 19 -4 19 -10 0 -5 9 -10 20 -10 11 0 20 -4 20 -10 0 -5 7 -10
15 -10 8 0 15 -4 15 -10 0 -5 8 -10 18 -10 10 0 24 -9 32 -20 8 -11 20 -20 27
-20 18 0 184 -167 202 -202 8 -16 18 -28 23 -28 4 0 8 -5 8 -10 0 -6 9 -21 21
-33 11 -12 28 -39 37 -59 9 -21 20 -38 24 -38 5 0 8 -9 8 -20 0 -11 5 -20 10
-20 6 0 10 -9 10 -20 0 -11 5 -20 10 -20 6 0 10 -11 10 -25 0 -14 5 -25 10
-25 6 0 10 -11 10 -25 0 -14 5 -25 10 -25 6 0 10 -11 10 -25 0 -14 5 -25 10
-25 6 0 10 -10 10 -23 0 -13 7 -32 15 -43 8 -10 15 -31 15 -46 0 -16 5 -28 10
-28 6 0 10 -18 10 -40 0 -22 5 -40 10 -40 6 0 10 -20 10 -45 0 -25 5 -45 10
-45 6 0 10 -25 10 -55 0 -30 5 -55 10 -55 6 0 10 -28 10 -65 0 -37 4 -65 10
-65 6 0 10 -38 10 -93 0 -51 4 -97 9 -103 5 -5 11 -25 13 -44 2 -28 8 -36 26
-38 14 -2 30 5 41 17 10 12 22 21 25 21 4 0 29 22 56 49 27 27 62 57 79 67 17
10 31 22 31 26 0 4 4 8 10 8 5 0 29 19 53 43 23 23 55 51 72 62 16 11 43 34
60 50 16 17 46 42 65 56 19 15 54 45 78 68 23 22 45 41 48 41 5 0 65 54 120
108 13 12 27 22 32 22 5 0 37 27 71 60 34 33 65 60 70 60 4 0 29 20 54 45 26
25 49 45 52 45 2 0 20 15 40 32 33 31 48 78 25 78 -6 0 -10 30 -10 70 0 40 -4
70 -10 70 -6 0 -10 27 -10 60 0 33 -4 60 -10 60 -5 0 -10 23 -10 51 0 31 -4
48 -10 44 -6 -4 -10 10 -10 34 0 23 -4 41 -10 41 -5 0 -10 11 -10 24 0 13 -6
37 -14 53 -8 15 -20 42 -26 58 -7 17 -16 38 -21 47 -5 10 -9 25 -9 33 0 8 -4
15 -10 15 -5 0 -10 9 -10 20 0 11 -4 20 -10 20 -5 0 -10 7 -10 15 0 8 -4 15
-10 15 -5 0 -10 9 -10 20 0 11 -4 20 -10 20 -5 0 -10 4 -10 10 0 9 -25 42 -57
76 -7 7 -13 17 -13 22 0 12 -138 152 -150 152 -6 0 -10 5 -10 10 0 6 -7 10
-15 10 -8 0 -15 3 -15 8 0 4 -20 21 -45 37 -24 17 -45 33 -45 38 0 4 -9 7 -20
7 -11 0 -20 5 -20 10 0 6 -7 10 -15 10 -8 0 -15 5 -15 10 0 6 -9 10 -20 10
-11 0 -20 5 -20 10 0 6 -9 10 -20 10 -11 0 -20 5 -20 10 0 6 -9 10 -20 10 -11
0 -20 5 -20 10 0 6 -8 10 -19 10 -10 0 -24 7 -31 15 -7 8 -21 15 -31 15 -11 0
-19 5 -19 10 0 6 -13 10 -30 10 -16 0 -30 5 -30 10 0 6 -13 10 -30 10 -16 0
-30 5 -30 10 0 6 -16 10 -36 10 -21 0 -33 4 -29 10 4 6 -12 10 -39 10 -25 0
-46 5 -46 10 0 6 -19 10 -43 10 -24 0 -47 4 -53 9 -5 5 -34 11 -64 14 -30 2
-73 9 -95 16 -62 16 -596 13 -660 -4z"/>
<path d="M1390 10820 c0 -5 -16 -10 -35 -10 -19 0 -35 -4 -35 -10 0 -5 -16
-10 -35 -10 -19 0 -35 -4 -35 -10 0 -5 -9 -10 -20 -10 -11 0 -20 -4 -20 -10 0
-5 -4 -10 -10 -10 -12 0 -78 -43 -107 -70 -12 -11 -25 -20 -28 -20 -8 0 -55
-47 -55 -55 0 -3 -15 -21 -34 -39 -18 -19 -40 -48 -47 -65 -8 -17 -17 -31 -21
-31 -5 0 -8 -7 -8 -15 0 -8 -4 -15 -10 -15 -5 0 -10 -9 -10 -20 0 -11 -4 -20
-10 -20 -5 0 -10 -16 -10 -35 0 -19 -4 -35 -10 -35 -5 0 -10 -18 -10 -40 0
-22 -4 -40 -10 -40 -6 0 -10 -55 -10 -144 0 -86 4 -147 10 -151 6 -3 10 -22
10 -41 0 -19 5 -34 10 -34 6 0 10 -16 10 -35 0 -19 5 -35 10 -35 6 0 10 -9 10
-20 0 -11 5 -20 10 -20 6 0 10 -7 10 -15 0 -8 4 -15 9 -15 5 0 12 -8 15 -17
18 -49 131 -183 153 -183 5 0 15 -9 23 -20 8 -11 20 -20 27 -20 7 0 13 -4 13
-10 0 -5 9 -10 20 -10 11 0 20 -4 20 -10 0 -5 6 -10 14 -10 8 0 16 -3 18 -7 6
-14 69 -43 94 -43 13 0 24 -4 24 -10 0 -5 18 -10 40 -10 22 0 40 -4 40 -10 0
-6 54 -10 141 -10 91 0 138 4 134 10 -4 6 12 10 39 10 25 0 46 5 46 10 0 6 13
10 29 10 16 0 33 6 39 13 6 7 27 19 47 27 19 7 35 17 35 22 0 4 7 8 15 8 8 0
15 5 15 10 0 6 9 10 20 10 11 0 25 9 32 20 7 11 16 20 20 20 9 0 58 45 58 54
0 4 16 22 35 40 19 19 35 38 35 45 0 6 5 11 10 11 6 0 10 7 10 15 0 8 5 15 10
15 6 0 10 9 10 20 0 11 5 20 10 20 6 0 10 9 10 20 0 11 5 20 10 20 6 0 10 12
10 28 0 15 7 36 15 46 8 11 15 32 15 48 0 15 5 28 10 28 6 0 10 56 10 149 0
89 -4 152 -10 156 -5 3 -10 19 -10 34 0 15 -7 36 -15 47 -8 10 -15 29 -15 42
0 12 -4 22 -10 22 -5 0 -10 6 -10 13 0 18 -24 67 -32 67 -5 0 -8 9 -8 20 0 11
-4 20 -10 20 -5 0 -10 5 -10 10 0 6 -16 24 -35 41 -19 17 -35 37 -35 45 0 8
-8 18 -17 21 -10 4 -30 19 -45 35 -14 15 -29 28 -34 28 -4 0 -22 11 -40 25
-18 14 -37 25 -43 25 -6 0 -11 5 -11 10 0 6 -9 10 -20 10 -11 0 -20 5 -20 10
0 6 -16 10 -35 10 -19 0 -35 5 -35 10 0 6 -16 10 -35 10 -19 0 -35 5 -35 10 0
6 -60 10 -160 10 -100 0 -160 -4 -160 -10z m-70 -170 c0 -5 -6 -13 -13 -17 -6
-4 -25 -26 -42 -48 -16 -22 -33 -41 -37 -43 -4 -2 -8 -17 -8 -34 0 -30 -1 -30
-18 -15 -10 10 -26 17 -36 17 -31 0 -31 30 0 56 16 13 33 23 37 24 5 0 27 16
50 35 40 34 67 45 67 25z m490 0 c0 -5 5 -10 11 -10 12 0 69 -41 113 -81 30
-28 28 -49 -4 -49 -10 0 -22 -4 -25 -10 -12 -20 -35 -10 -35 15 0 24 -6 33
-62 100 -15 18 -25 35 -21 39 10 9 23 7 23 -4z m-328 -118 c-1 -67 -5 -107
-12 -106 -5 1 -32 2 -60 3 -49 1 -50 2 -50 31 0 17 5 30 10 30 6 0 10 7 10 16
0 9 8 24 18 33 10 9 31 38 46 64 15 27 30 46 34 43 3 -4 5 -55 4 -114z m188
41 c0 -7 5 -13 10 -13 6 0 10 -7 10 -15 0 -8 5 -15 10 -15 6 0 10 -7 10 -15 0
-8 4 -15 9 -15 12 0 24 -51 14 -60 -4 -4 -33 -10 -63 -13 l-55 -5 2 106 c1 59
2 109 2 112 2 10 50 -55 51 -67z m-591 -167 c7 -8 27 -22 46 -31 30 -14 35
-21 35 -50 0 -19 -4 -35 -10 -35 -6 0 -10 -27 -10 -60 l0 -60 -95 0 c-104 0
-111 5 -80 60 8 14 14 35 15 48 0 12 5 22 10 22 6 0 10 11 10 25 0 14 5 25 10
25 6 0 10 10 10 23 0 41 36 61 59 33z m1001 -28 c11 -23 20 -48 20 -55 0 -7 5
-13 10 -13 6 0 10 -16 10 -35 0 -19 5 -35 10 -35 6 0 10 -16 10 -35 l0 -35
-90 0 -90 0 0 74 c0 41 -4 78 -10 81 -17 11 -11 45 8 45 9 1 31 12 47 25 41
34 51 32 75 -17z m-730 -78 c0 -5 28 -10 63 -12 l62 -3 3 -57 3 -58 -106 0
-105 0 0 30 c0 17 6 48 12 70 11 34 17 40 40 40 16 0 28 -4 28 -10z m456 -7
c7 -10 14 -36 14 -57 0 -25 6 -44 18 -52 14 -11 -2 -13 -107 -14 -108 0 -122
2 -117 16 3 9 6 36 6 60 l0 44 65 0 c37 0 65 4 65 10 0 17 42 11 56 -7z m44
-262 c0 -5 -7 -11 -15 -15 -10 -3 -15 -20 -15 -48 -1 -51 -23 -89 -42 -70 -7
7 -25 12 -41 12 -15 0 -48 5 -73 11 -41 11 -44 14 -44 44 0 19 -3 40 -6 49 -5
13 10 16 103 19 59 1 114 4 121 5 6 1 12 -2 12 -7z m-710 -61 c0 -33 4 -60 10
-60 15 0 12 -49 -4 -66 -8 -8 -22 -14 -30 -14 -9 0 -16 -4 -16 -10 0 -5 -6
-10 -14 -10 -8 0 -16 -7 -20 -15 -3 -8 -10 -15 -16 -15 -5 0 -10 7 -10 15 0 8
-4 15 -10 15 -5 0 -10 11 -10 25 0 14 -4 25 -10 25 -5 0 -10 9 -10 19 0 11 -4
23 -10 26 -5 3 -10 16 -10 28 0 12 -9 35 -19 51 -11 17 -18 33 -15 38 3 4 48
8 100 8 l94 0 0 -60z m340 11 l0 -49 -44 -11 c-25 -6 -57 -11 -72 -11 -15 0
-36 -7 -46 -16 -16 -16 -18 -15 -24 2 -3 11 -10 29 -15 42 -5 13 -9 38 -9 57
l0 35 105 0 105 0 0 -49z m660 19 c0 -16 -4 -30 -10 -30 -5 0 -10 -11 -10 -25
0 -14 -4 -33 -9 -43 -5 -9 -13 -28 -19 -42 -5 -14 -14 -37 -21 -52 -11 -30
-41 -39 -41 -13 0 8 -7 15 -15 15 -8 0 -15 5 -15 10 0 6 -7 10 -16 10 -25 0
-49 29 -35 43 6 6 11 43 11 84 l0 73 90 0 90 0 0 -30z m-658 -322 c2 -57 0
-107 -4 -112 -8 -10 -44 29 -54 58 -4 11 -15 29 -25 40 -11 11 -19 26 -19 33
0 7 -4 13 -10 13 -5 0 -10 9 -10 20 0 11 -4 20 -10 20 -5 0 -10 7 -10 15 0 12
14 15 69 15 l70 0 3 -102z m268 88 c0 -8 -4 -18 -10 -21 -5 -3 -10 -15 -10
-26 0 -10 -4 -19 -10 -19 -5 0 -10 -7 -10 -15 0 -8 -4 -15 -10 -15 -5 0 -10
-7 -10 -15 0 -8 -4 -15 -10 -15 -5 0 -10 -6 -10 -12 -1 -18 -47 -72 -52 -62
-2 5 -2 55 0 112 l4 102 64 0 c49 0 64 -3 64 -14z m-530 -77 c0 -18 23 -51 64
-90 15 -14 17 -22 9 -30 -12 -12 -51 10 -87 50 -11 12 -27 21 -37 21 -10 0
-23 9 -29 19 -8 16 -4 22 28 39 41 22 52 20 52 -9z m700 12 c0 -5 9 -11 20
-14 28 -7 16 -30 -30 -56 -22 -12 -48 -33 -59 -48 -13 -15 -27 -23 -36 -19
-22 8 -19 17 20 58 21 22 35 47 35 62 0 21 5 26 25 26 14 0 25 -4 25 -9z"/>
<path d="M10771 10758 c0 -26 4 -50 9 -53 11 -7 11 25 0 70 -7 27 -8 25 -9
-17z"/>
<path d="M10106 10411 l-58 -58 1 -74 1 -73 62 -63 62 -63 70 0 69 0 61 62 61
61 3 69 c3 53 0 74 -13 95 -15 22 -19 24 -26 10 -10 -18 -1 -50 12 -41 5 3 5
-5 0 -19 -7 -17 -6 -28 2 -36 9 -9 8 -11 -5 -6 -11 4 -18 2 -18 -4 0 -6 4 -11
9 -11 5 0 7 -10 3 -22 -4 -16 -2 -19 9 -13 8 5 1 -5 -16 -22 -16 -16 -37 -28
-45 -26 -10 3 -8 -1 5 -12 20 -17 20 -17 -4 -10 -21 6 -23 5 -18 -14 3 -12 2
-19 -3 -16 -4 3 -10 -1 -13 -9 -6 -15 -41 -11 -65 7 -9 7 -17 6 -25 -3 -10
-10 -9 -11 3 -5 8 5 12 4 7 0 -9 -11 -57 -13 -51 -3 3 4 -7 10 -21 14 -14 3
-25 10 -25 16 0 5 -4 6 -10 3 -5 -3 -10 -1 -10 4 0 6 7 11 16 11 8 0 13 4 9
10 -3 5 -13 6 -22 3 -10 -4 -14 -2 -10 4 4 6 0 14 -9 17 -10 4 -13 2 -8 -6 4
-7 3 -8 -4 -4 -6 4 -9 13 -5 21 3 8 0 15 -6 15 -6 0 -11 7 -11 15 0 8 4 15 10
15 5 0 6 7 3 17 -4 11 -3 14 5 9 8 -5 10 -2 6 8 -3 9 -9 14 -13 12 -3 -2 -6 7
-6 20 0 13 4 24 9 24 4 0 6 7 3 15 -4 8 -1 17 5 21 7 5 8 3 3 -5 -5 -10 -3
-10 13 0 12 7 18 19 15 28 -4 11 0 9 11 -4 17 -20 17 -20 13 0 -5 27 20 50 55
50 16 0 28 -3 28 -6 0 -3 7 -6 15 -6 8 0 15 3 15 7 0 13 45 5 58 -10 10 -11
12 -11 6 -1 -4 9 -3 12 4 7 6 -4 9 -12 7 -19 -7 -17 6 -33 33 -41 34 -11 28
15 -16 57 -37 36 -40 37 -113 37 l-75 0 -58 -59z"/>
<path d="M10174 10373 c-10 -16 -17 -34 -16 -41 2 -10 -2 -11 -15 -4 -16 9
-18 5 -18 -45 0 -45 4 -58 24 -74 13 -10 33 -19 44 -19 20 0 20 1 -3 17 -14
10 -28 17 -32 16 -4 -2 -5 4 -2 12 4 10 0 15 -12 16 -11 0 -14 3 -6 6 6 2 12
11 12 18 0 31 26 67 57 80 30 13 38 12 67 -2 33 -15 56 -48 56 -79 0 -9 5 -13
13 -9 6 4 4 0 -6 -8 -18 -15 -18 -16 0 -25 16 -9 18 -5 21 29 1 22 -1 39 -5
38 -19 -3 -23 2 -11 15 9 10 15 11 20 2 6 -8 8 -7 8 2 0 7 -11 17 -24 22 -13
5 -27 14 -31 20 -3 5 -11 7 -17 4 -6 -4 -8 1 -4 13 5 17 1 19 -36 18 -24 0
-49 -4 -57 -9 -10 -6 -12 -5 -7 2 15 25 -3 11 -20 -15z m100 1 c3 -8 2 -12 -4
-9 -6 3 -10 10 -10 16 0 14 7 11 14 -7z m-67 -10 c-3 -3 -12 -4 -19 -1 -8 3
-5 6 6 6 11 1 17 -2 13 -5z"/>
<path d="M10196 10311 c-9 -10 -16 -27 -16 -38 0 -46 73 -71 101 -35 13 16 13
16 -5 2 -18 -14 -18 -14 -6 7 8 12 18 19 22 17 4 -3 8 2 8 11 0 9 -5 13 -11
10 -6 -4 -9 0 -7 11 2 14 -2 18 -16 16 -10 -2 -16 0 -13 5 10 16 -42 10 -57
-6z m24 5 c0 -2 -8 -10 -17 -17 -16 -13 -17 -12 -4 4 13 16 21 21 21 13z m30
-42 c0 -9 -5 -14 -12 -12 -18 6 -21 28 -4 28 9 0 16 -7 16 -16z m-39 -31 c13
-16 12 -17 -3 -4 -17 13 -22 21 -14 21 2 0 10 -8 17 -17z"/>
<path d="M10290 10208 c-15 -12 -18 -19 -8 -15 9 3 18 1 20 -4 2 -6 12 0 23
13 19 22 19 22 1 8 -18 -14 -19 -13 -13 3 8 21 8 21 -23 -5z"/>
<path d="M10223 10178 c1 -6 -7 -13 -18 -15 -16 -3 -17 -2 -5 6 13 9 12 11 -3
11 -11 0 -17 -5 -14 -12 4 -12 14 -12 65 -6 20 2 13 28 -8 28 -11 0 -19 -5
-17 -12z"/>
<path d="M10270 10160 c0 -5 4 -10 9 -10 6 0 13 5 16 10 3 6 -1 10 -9 10 -9 0
-16 -4 -16 -10z"/>
<path d="M10760 9627 c0 -72 11 -107 35 -107 19 0 9 92 -16 140 l-18 35 -1
-68z"/>
<path d="M10184 8280 c-4 -16 -10 -30 -15 -30 -5 0 -9 -14 -9 -31 0 -17 -4
-28 -10 -24 -6 4 -10 -7 -10 -24 0 -17 -4 -31 -10 -31 -5 0 -10 -13 -10 -30 0
-16 -4 -30 -10 -30 -5 0 -10 -9 -10 -19 0 -11 -11 -41 -25 -67 -14 -26 -25
-55 -25 -65 0 -11 -4 -19 -10 -19 -5 0 -10 -11 -10 -25 0 -14 -4 -25 -10 -25
-5 0 -10 -13 -10 -30 0 -16 -4 -30 -10 -30 -5 0 -10 -11 -10 -25 0 -14 -4 -25
-10 -25 -5 0 -10 -13 -10 -30 0 -16 -4 -30 -10 -30 -5 0 -10 -9 -10 -20 0 -11
-4 -28 -9 -38 -5 -9 -17 -35 -26 -57 -10 -22 -22 -48 -26 -57 -5 -10 -9 -27
-9 -38 0 -11 -4 -20 -10 -20 -5 0 -10 -11 -10 -25 0 -14 -4 -25 -10 -25 -5 0
-10 -14 -10 -31 0 -17 -4 -28 -10 -24 -6 4 -10 -7 -10 -24 0 -17 -4 -31 -10
-31 -5 0 -10 -13 -10 -30 0 -16 -4 -30 -10 -30 -5 0 -10 -9 -10 -19 0 -11 -4
-23 -10 -26 -5 -3 -10 -17 -10 -29 0 -13 -7 -29 -15 -36 -8 -7 -15 -23 -15
-36 0 -13 -4 -24 -10 -24 -5 0 -10 -11 -10 -25 0 -14 -4 -25 -10 -25 -5 0 -10
-13 -10 -30 0 -16 -4 -30 -10 -30 -5 0 -10 -11 -10 -25 0 -14 -4 -25 -10 -25
-5 0 -10 -13 -10 -30 0 -16 -4 -30 -10 -30 -5 0 -10 -9 -10 -20 0 -20 -3 -27
-34 -87 -9 -17 -16 -38 -16 -47 0 -9 -4 -16 -10 -16 -5 0 -10 -13 -10 -30 0
-16 -4 -30 -10 -30 -5 0 -10 -11 -10 -25 0 -14 -4 -25 -10 -25 -5 0 -10 -13
-10 -30 0 -16 -4 -30 -10 -30 -5 0 -10 -11 -10 -25 0 -14 -4 -25 -10 -25 -5 0
-10 -11 -10 -24 0 -14 -4 -28 -10 -31 -5 -3 -10 -17 -10 -31 0 -13 -4 -24 -10
-24 -5 0 -10 -8 -10 -18 0 -10 -7 -27 -15 -38 -8 -10 -15 -29 -15 -41 0 -13
-4 -23 -10 -23 -5 0 -10 -11 -10 -25 0 -14 -4 -25 -10 -25 -5 0 -10 -14 -10
-31 0 -17 -4 -28 -10 -24 -6 4 -10 -7 -10 -24 0 -17 -4 -31 -10 -31 -5 0 -10
-11 -10 -24 0 -14 -4 -28 -10 -31 -5 -3 -10 -17 -10 -31 0 -13 -4 -24 -10 -24
-5 0 -10 -10 -10 -22 0 -13 -7 -32 -15 -42 -8 -11 -15 -28 -15 -38 0 -10 -4
-18 -10 -18 -5 0 -10 -11 -10 -25 0 -14 -4 -25 -10 -25 -5 0 -10 -13 -10 -30
0 -16 -4 -30 -10 -30 -5 0 -10 -11 -10 -25 0 -14 -4 -25 -10 -25 -5 0 -10 -13
-10 -30 0 -16 -4 -30 -10 -30 -5 0 -10 -11 -10 -25 0 -14 -4 -25 -10 -25 -5 0
-10 -9 -10 -20 0 -11 -4 -28 -9 -38 -4 -9 -16 -35 -26 -57 -9 -22 -21 -48 -26
-57 -5 -10 -9 -27 -9 -38 0 -11 -4 -20 -10 -20 -5 0 -10 -11 -10 -25 0 -14 -4
-25 -10 -25 -5 0 -10 -13 -10 -30 0 -16 -4 -30 -10 -30 -5 0 -10 -9 -10 -20 0
-11 -5 -29 -10 -40 -6 -11 -15 -29 -20 -40 -6 -11 -10 -28 -10 -37 0 -10 -7
-27 -15 -37 -8 -11 -15 -28 -15 -38 0 -10 -4 -18 -10 -18 -5 0 -10 -11 -10
-25 0 -14 -4 -25 -10 -25 -5 0 -10 -14 -10 -31 0 -17 -4 -28 -10 -24 -6 4 -10
-7 -10 -24 0 -17 -4 -31 -10 -31 -5 0 -10 -11 -10 -25 0 -14 -4 -25 -10 -25
-5 0 -10 -13 -10 -30 0 -16 -4 -30 -10 -30 -5 0 -10 -9 -10 -20 0 -20 -2 -27
-33 -88 -9 -19 -17 -40 -17 -48 0 -8 -4 -14 -10 -14 -5 0 -10 -13 -10 -30 0
-16 -4 -30 -10 -30 -5 0 -10 -11 -10 -25 0 -14 -4 -25 -10 -25 -5 0 -10 -14
-10 -31 0 -17 -4 -28 -10 -24 -6 4 -10 -7 -10 -24 0 -17 -4 -31 -10 -31 -5 0
-10 -11 -10 -24 0 -14 -4 -28 -10 -31 -5 -3 -10 -13 -10 -21 0 -8 -11 -37 -25
-66 -14 -28 -25 -60 -25 -70 0 -10 -4 -18 -10 -18 -5 0 -10 -11 -10 -25 0 -14
-4 -25 -10 -25 -5 0 -10 -13 -10 -30 0 -16 -4 -30 -10 -30 -5 0 -10 -11 -10
-25 0 -14 -4 -25 -10 -25 -5 0 -10 -13 -10 -30 0 -16 -4 -30 -10 -30 -5 0 -10
-11 -10 -24 0 -14 -4 -28 -10 -31 -5 -3 -10 -14 -10 -24 0 -10 -7 -24 -15 -31
-8 -7 -15 -23 -15 -36 0 -13 -4 -24 -10 -24 -5 0 -10 -13 -10 -30 0 -16 -4
-30 -10 -30 -5 0 -10 -11 -10 -25 0 -14 -5 -25 -11 -25 -6 0 -9 -12 -7 -27 l3
-28 360 0 360 0 3 27 c2 14 10 32 18 38 8 7 14 23 14 36 0 12 5 26 10 29 6 3
10 17 10 31 0 13 5 24 10 24 6 0 10 14 10 30 0 17 5 30 10 30 6 0 10 14 10 30
0 17 5 30 10 30 6 0 10 14 10 30 0 17 5 30 10 30 6 0 10 14 10 30 0 17 5 30
10 30 6 0 10 9 10 19 0 11 8 34 17 53 31 61 33 68 33 88 0 11 5 20 10 20 6 0
10 14 10 30 0 17 5 30 10 30 6 0 10 14 10 30 0 17 5 30 10 30 6 0 10 14 10 30
0 17 5 30 10 30 6 0 10 14 10 30 0 17 5 30 10 30 6 0 10 11 10 24 0 14 5 28
10 31 6 3 10 17 10 29 0 13 7 29 15 36 8 7 15 23 15 36 0 13 5 24 10 24 6 0
10 14 10 30 0 17 5 30 10 30 6 0 10 14 10 30 0 17 5 30 10 30 6 0 10 14 10 30
l0 30 1048 -2 1047 -3 3 -32 c2 -18 7 -33 13 -33 5 0 9 -9 9 -19 0 -11 8 -34
17 -53 31 -61 33 -68 33 -87 0 -11 5 -23 10 -26 6 -3 10 -17 10 -31 0 -13 5
-24 10 -24 6 0 10 -13 10 -30 0 -16 5 -30 10 -30 6 0 10 -13 10 -30 0 -16 5
-30 10 -30 6 0 10 -13 10 -30 0 -16 5 -30 10 -30 6 0 10 -9 10 -20 0 -20 2
-27 33 -88 9 -19 17 -42 17 -52 0 -10 5 -22 10 -25 6 -3 10 -17 10 -31 0 -13
5 -24 10 -24 6 0 10 -16 10 -36 0 -21 4 -33 10 -29 6 4 10 -7 10 -24 0 -17 5
-31 10 -31 6 0 10 -13 10 -30 0 -16 5 -30 10 -30 6 0 10 -13 10 -30 0 -16 5
-30 10 -30 6 0 10 -11 10 -24 0 -13 7 -29 15 -36 8 -7 15 -23 15 -36 0 -12 5
-26 10 -29 6 -3 10 -17 10 -30 0 -13 5 -27 10 -30 6 -3 10 -17 10 -31 l0 -24
355 0 355 0 0 40 c0 22 -4 40 -10 40 -5 0 -10 14 -10 31 0 17 -4 28 -10 24 -6
-4 -10 7 -10 24 0 17 -4 31 -10 31 -5 0 -10 9 -10 20 0 11 -4 28 -9 38 -5 9
-17 35 -26 57 -10 22 -22 48 -26 57 -5 10 -9 27 -9 38 0 11 -4 20 -10 20 -5 0
-10 11 -10 25 0 14 -4 25 -10 25 -5 0 -10 14 -10 30 0 17 -4 30 -10 30 -5 0
-10 11 -10 25 0 14 -4 25 -10 25 -5 0 -10 14 -10 30 0 17 -4 30 -10 30 -5 0
-10 11 -10 25 0 14 -4 25 -10 25 -5 0 -10 8 -10 18 0 10 -7 27 -15 38 -8 10
-15 29 -15 42 0 12 -4 22 -10 22 -5 0 -10 11 -10 24 0 14 -4 28 -10 31 -5 3
-10 17 -10 31 0 13 -4 24 -10 24 -5 0 -10 11 -10 25 0 14 -4 25 -10 25 -5 0
-10 14 -10 30 0 17 -4 30 -10 30 -5 0 -10 9 -10 20 0 11 -4 28 -9 38 -5 9 -17
35 -26 57 -10 22 -22 48 -26 57 -5 10 -9 27 -9 38 0 11 -4 20 -10 20 -5 0 -10
11 -10 25 0 14 -4 25 -10 25 -5 0 -10 14 -10 30 0 17 -4 30 -10 30 -5 0 -10
11 -10 25 0 14 -4 25 -10 25 -5 0 -10 14 -10 30 0 17 -4 30 -10 30 -5 0 -10
11 -10 25 0 14 -4 25 -10 25 -5 0 -10 7 -10 16 0 9 -7 30 -16 47 -31 60 -34
67 -34 87 0 11 -4 20 -10 20 -5 0 -10 14 -10 30 0 17 -4 30 -10 30 -5 0 -10
14 -10 31 0 17 -4 28 -10 24 -6 -4 -10 7 -10 24 0 17 -4 31 -10 31 -5 0 -10
11 -10 25 0 14 -4 25 -10 25 -5 0 -10 11 -10 24 0 13 -7 29 -15 36 -8 7 -15
21 -15 31 0 11 -4 28 -10 39 -5 11 -14 29 -20 40 -5 11 -10 29 -10 40 0 11 -4
20 -10 20 -5 0 -10 14 -10 30 0 17 -4 30 -10 30 -5 0 -10 11 -10 25 0 14 -4
25 -10 25 -5 0 -10 14 -10 30 0 17 -4 30 -10 30 -5 0 -10 11 -10 25 0 14 -4
25 -10 25 -5 0 -10 8 -10 18 0 10 -7 27 -15 38 -8 10 -15 29 -15 42 0 12 -4
22 -10 22 -5 0 -10 11 -10 25 0 14 -4 25 -10 25 -5 0 -10 14 -10 30 0 17 -4
30 -10 30 -5 0 -10 11 -10 25 0 14 -4 25 -10 25 -5 0 -10 14 -10 30 0 17 -4
30 -10 30 -5 0 -10 9 -10 20 0 20 -3 27 -34 87 -9 17 -16 38 -16 47 0 9 -4 16
-10 16 -5 0 -10 11 -10 24 0 14 -4 28 -10 31 -5 3 -10 17 -10 31 0 13 -4 24
-10 24 -5 0 -10 14 -10 30 0 17 -4 30 -10 30 -5 0 -10 11 -10 25 0 14 -4 25
-10 25 -5 0 -10 14 -10 30 0 17 -4 30 -10 30 -5 0 -10 11 -10 25 0 14 -4 25
-10 25 -5 0 -10 7 -10 16 0 9 -7 30 -16 47 -31 59 -34 67 -34 86 0 11 -4 23
-10 26 -5 3 -10 17 -10 31 0 13 -4 24 -10 24 -5 0 -10 11 -10 25 0 14 -4 25
-10 25 -5 0 -10 14 -10 30 0 17 -4 30 -10 30 -5 0 -10 11 -10 25 0 14 -4 25
-10 25 -5 0 -10 10 -10 23 0 12 -7 31 -15 41 -8 11 -15 28 -15 38 0 10 -4 18
-10 18 -5 0 -10 11 -10 24 0 14 -4 28 -10 31 -5 3 -10 17 -10 31 0 13 -4 24
-10 24 -5 0 -10 14 -10 31 0 17 -4 28 -10 24 -6 -4 -10 7 -10 24 0 17 -4 31
-10 31 -5 0 -10 11 -10 25 0 14 -4 25 -10 25 -5 0 -10 14 -10 30 0 17 -4 30
-10 30 -5 0 -10 7 -10 16 0 9 -7 30 -16 47 -31 60 -34 67 -34 87 0 11 -4 20
-10 20 -5 0 -10 14 -10 30 0 17 -4 30 -10 30 -5 0 -10 11 -10 25 0 14 -4 25
-10 25 -5 0 -10 14 -10 30 0 17 -4 30 -10 30 -5 0 -10 11 -10 25 0 14 -4 25
-10 25 -5 0 -10 11 -10 24 0 13 -7 29 -15 36 -8 7 -15 23 -15 36 0 12 -4 26
-10 29 -5 3 -10 15 -10 26 0 10 -4 19 -10 19 -5 0 -10 14 -10 30 0 17 -4 30
-10 30 -5 0 -10 14 -10 30 0 17 -4 30 -10 30 -5 0 -10 7 -10 15 0 13 -49 15
-385 15 l-385 0 -6 -30z m406 -740 c0 -16 5 -30 10 -30 6 0 10 -13 10 -30 0
-16 5 -30 10 -30 6 0 10 -11 10 -25 0 -14 5 -25 10 -25 6 0 10 -13 10 -30 0
-16 5 -30 10 -30 6 0 10 -13 10 -30 0 -16 5 -30 10 -30 6 0 10 -10 10 -22 0
-13 7 -32 15 -42 8 -11 15 -28 15 -38 0 -10 5 -18 10 -18 6 0 10 -13 10 -30 0
-16 5 -30 10 -30 6 0 10 -11 10 -25 0 -14 5 -25 10 -25 6 0 10 -13 10 -30 0
-16 5 -30 10 -30 6 0 10 -13 10 -30 0 -16 5 -30 10 -30 6 0 10 -11 10 -25 0
-14 5 -25 10 -25 6 0 10 -13 10 -30 0 -16 5 -30 10 -30 6 0 10 -8 10 -18 0
-10 7 -27 15 -38 8 -10 15 -29 15 -41 0 -13 5 -23 10 -23 6 0 10 -13 10 -30 0
-16 5 -30 10 -30 6 0 10 -11 10 -25 0 -14 5 -25 10 -25 6 0 10 -13 10 -30 0
-16 5 -30 10 -30 6 0 10 -13 10 -30 0 -16 5 -30 10 -30 6 0 10 -11 10 -25 0
-14 5 -25 10 -25 6 0 10 -9 10 -19 0 -11 8 -34 17 -53 31 -61 33 -68 33 -88 0
-11 5 -20 10 -20 6 0 10 -13 10 -30 0 -16 5 -30 10 -30 6 0 10 -11 10 -25 0
-14 5 -25 10 -25 6 0 10 -13 10 -30 0 -16 5 -30 10 -30 6 0 10 -13 10 -30 0
-16 5 -30 10 -30 6 0 10 -9 10 -19 0 -11 11 -41 25 -67 14 -26 25 -55 25 -65
0 -10 5 -21 10 -24 6 -3 10 -17 10 -31 0 -13 5 -24 10 -24 6 0 10 -13 10 -30
0 -16 5 -30 10 -30 6 0 10 -14 10 -31 0 -17 4 -28 10 -24 6 4 10 -7 10 -24 0
-17 5 -31 10 -31 6 0 10 -13 10 -30 0 -16 5 -30 10 -30 6 0 10 -8 10 -19 0
-10 11 -39 25 -65 14 -26 25 -56 25 -67 0 -10 5 -19 10 -19 6 0 10 -7 10 -15
0 -13 -98 -15 -820 -15 -649 0 -820 3 -820 13 0 6 7 25 15 41 8 15 15 37 15
47 0 11 5 19 10 19 6 0 10 11 10 25 0 14 5 25 10 25 6 0 10 14 10 30 0 17 5
30 10 30 6 0 10 14 10 30 0 17 5 30 10 30 6 0 10 11 10 25 0 14 5 25 10 25 6
0 10 14 10 30 0 17 5 30 10 30 6 0 10 9 10 19 0 11 8 34 17 53 31 61 33 68 33
88 0 11 5 20 10 20 6 0 10 14 10 31 0 17 4 28 10 24 6 -4 10 7 10 24 0 17 5
31 10 31 6 0 10 14 10 30 0 17 5 30 10 30 6 0 10 14 10 30 0 17 5 30 10 30 6
0 10 9 10 20 0 11 4 28 9 38 4 9 16 35 26 57 9 22 21 48 26 57 5 10 9 27 9 38
0 11 5 20 10 20 6 0 10 14 10 30 0 17 5 30 10 30 6 0 10 11 10 25 0 14 5 25
10 25 6 0 10 14 10 30 0 17 5 30 10 30 6 0 10 14 10 30 0 17 5 30 10 30 6 0
10 10 10 23 0 12 7 31 15 41 8 11 15 28 15 38 0 10 5 18 10 18 6 0 10 14 10
30 0 17 5 30 10 30 6 0 10 11 10 25 0 14 5 25 10 25 6 0 10 14 10 30 0 17 5
30 10 30 6 0 10 14 10 30 0 17 5 30 10 30 6 0 10 9 10 20 0 11 5 29 10 40 6
11 15 29 20 40 6 11 10 28 10 39 0 10 7 24 15 31 8 7 15 23 15 36 0 13 5 24
10 24 6 0 10 14 10 30 0 17 5 30 10 30 6 0 10 14 10 30 0 17 5 30 10 30 6 0
10 11 10 25 0 14 5 25 10 25 6 0 10 14 10 30 0 17 5 30 10 30 6 0 10 11 10 24
0 14 5 28 10 31 6 3 10 19 10 34 0 26 16 51 32 51 4 0 8 -13 8 -30z"/>
<path d="M9337 2674 c-4 -4 -7 -16 -7 -26 0 -10 -4 -18 -10 -18 -5 0 -10 -11
-10 -25 0 -14 -4 -33 -9 -43 -14 -28 -33 -85 -38 -114 -3 -16 -9 -28 -14 -28
-5 0 -9 -16 -9 -35 0 -19 -4 -35 -10 -35 -5 0 -10 -13 -10 -30 0 -16 -4 -30
-10 -30 -5 0 -10 -16 -10 -35 0 -19 -4 -35 -10 -35 -5 0 -10 -16 -10 -35 0
-19 -4 -35 -10 -35 -5 0 -10 -13 -10 -29 0 -17 -4 -33 -10 -36 -5 -3 -10 -19
-10 -35 0 -16 -4 -32 -10 -35 -5 -3 -10 -16 -10 -28 0 -12 -7 -31 -15 -41 -8
-11 -15 -30 -15 -42 0 -13 -4 -26 -10 -29 -5 -3 -10 -19 -10 -36 0 -16 -4 -29
-10 -29 -5 0 -10 -16 -10 -35 0 -19 -4 -35 -10 -35 -5 0 -10 -16 -10 -35 0
-19 -4 -35 -10 -35 -5 0 -10 -13 -10 -30 0 -16 -4 -30 -10 -30 -5 0 -10 -16
-10 -35 0 -19 -4 -35 -10 -35 -5 0 -10 -22 -10 -50 l0 -50 95 0 96 0 6 30 c3
17 9 30 14 30 5 0 9 16 9 35 0 19 5 35 10 35 6 0 10 14 10 30 0 17 5 30 10 30
6 0 10 16 10 35 0 19 5 35 10 35 6 0 10 11 10 25 0 14 4 33 9 43 14 28 33 85
38 115 3 15 9 27 14 27 5 0 9 16 9 35 0 19 5 35 10 35 6 0 10 14 10 30 0 17 5
30 10 30 6 0 10 16 10 35 0 19 5 35 10 35 6 0 10 16 10 36 0 21 4 33 10 29 6
-4 10 8 10 29 0 20 5 36 10 36 6 0 10 13 10 29 0 17 5 33 10 36 6 3 10 16 10
29 0 12 7 31 15 42 8 10 15 31 15 47 0 15 5 27 10 27 6 0 10 16 10 35 0 19 5
35 10 35 6 0 10 16 10 35 0 19 5 35 11 35 6 0 9 17 7 43 l-3 42 -90 3 c-50 1
-94 0 -98 -4z"/>
<path d="M8760 2460 c0 -5 -9 -10 -20 -10 -11 0 -28 -4 -38 -9 -9 -5 -35 -17
-57 -26 -22 -10 -48 -22 -57 -26 -10 -5 -27 -9 -37 -9 -11 0 -23 -4 -26 -10
-3 -5 -19 -10 -36 -10 -16 0 -29 -4 -29 -10 0 -5 -11 -10 -25 -10 -14 0 -25
-4 -25 -10 0 -5 -13 -10 -30 -10 -16 0 -30 -4 -30 -10 0 -5 -13 -10 -30 -10
-16 0 -30 -4 -30 -10 0 -5 -9 -10 -20 -10 -11 0 -28 -4 -38 -9 -9 -4 -35 -16
-57 -26 -22 -9 -48 -21 -57 -26 -10 -5 -27 -9 -38 -9 -11 0 -20 -4 -20 -10 0
-5 -13 -10 -30 -10 -16 0 -30 -4 -30 -10 0 -5 -13 -10 -30 -10 -57 0 -70 -23
-70 -124 0 -97 9 -115 61 -116 15 0 32 -7 39 -15 7 -8 23 -15 36 -15 13 0 24
-4 24 -10 0 -5 11 -10 25 -10 14 0 25 -4 25 -10 0 -5 14 -10 30 -10 17 0 30
-4 30 -10 0 -5 14 -10 30 -10 17 0 30 -4 30 -10 0 -5 14 -10 30 -10 17 0 30
-4 30 -10 0 -5 11 -10 24 -10 14 0 28 -4 31 -10 3 -5 15 -10 26 -10 19 0 26
-2 87 -33 19 -9 42 -17 53 -17 10 0 19 -4 19 -10 0 -5 11 -10 25 -10 14 0 25
-4 25 -10 0 -5 14 -10 30 -10 17 0 30 -4 30 -10 0 -5 14 -10 30 -10 17 0 30
-4 30 -10 0 -5 14 -10 30 -10 17 0 30 -4 30 -9 0 -15 93 -23 102 -9 11 18 10
168 -1 168 -5 0 -12 11 -15 25 -5 21 -12 25 -41 25 -19 0 -35 5 -35 10 0 6
-13 10 -30 10 -16 0 -30 5 -30 10 0 6 -13 10 -30 10 -16 0 -30 5 -30 10 0 6
-12 10 -27 10 -16 0 -37 7 -47 15 -11 8 -28 15 -38 15 -10 0 -18 5 -18 10 0 6
-13 10 -30 10 -16 0 -30 5 -30 10 0 6 -13 10 -30 10 -16 0 -30 5 -30 10 0 6
-13 10 -30 10 -16 0 -30 5 -30 10 0 6 -13 10 -28 10 -16 0 -32 3 -36 7 -4 4
-17 7 -29 8 -32 0 -32 19 0 23 15 2 32 8 37 13 6 5 23 9 38 9 15 0 28 5 28 10
0 6 14 10 30 10 17 0 30 5 30 10 0 6 14 10 30 10 17 0 30 5 30 10 0 6 16 10
36 10 21 0 33 4 29 10 -4 6 7 10 24 10 17 0 31 5 31 10 0 6 14 10 30 10 17 0
30 5 30 10 0 6 14 10 30 10 17 0 30 5 30 10 0 6 11 10 24 10 13 0 29 7 36 15
7 8 26 15 42 15 21 0 31 6 35 20 3 11 9 20 14 20 10 0 12 140 3 164 -4 12 -20
16 -55 16 -27 0 -49 -4 -49 -10z"/>
<path d="M9630 2372 c0 -103 7 -122 45 -122 12 0 30 -7 41 -15 10 -8 29 -15
42 -15 12 0 22 -4 22 -10 0 -5 14 -10 30 -10 17 0 30 -4 30 -10 0 -5 14 -10
30 -10 17 0 30 -4 30 -10 0 -5 14 -10 30 -10 17 0 30 -4 30 -10 0 -5 14 -10
30 -10 17 0 30 -4 30 -10 0 -5 14 -10 30 -10 17 0 30 -4 30 -10 0 -5 13 -10
28 -10 15 0 32 -4 38 -10 5 -5 36 -16 69 -23 57 -13 74 -32 28 -32 -11 0 -25
-3 -29 -7 -4 -5 -20 -8 -36 -8 -15 0 -28 -4 -28 -10 0 -5 -13 -10 -30 -10 -16
0 -30 -4 -30 -10 0 -5 -13 -10 -30 -10 -16 0 -30 -4 -30 -10 0 -5 -9 -10 -20
-10 -11 0 -28 -4 -38 -9 -9 -5 -37 -17 -62 -26 -25 -9 -53 -21 -62 -26 -10 -5
-29 -9 -43 -9 -14 0 -25 -4 -25 -10 0 -5 -13 -10 -30 -10 -16 0 -30 -4 -30
-10 0 -5 -14 -10 -31 -10 -52 0 -60 -17 -57 -127 l3 -98 45 3 c25 2 49 8 54
13 6 5 23 9 39 9 16 0 26 4 22 10 -4 6 7 10 24 10 17 0 31 5 31 10 0 6 14 10
30 10 17 0 30 5 30 10 0 6 9 10 20 10 11 0 28 4 38 9 9 4 35 16 57 26 22 9 48
21 57 26 10 5 27 9 38 9 11 0 20 5 20 10 0 6 14 10 30 10 17 0 30 5 30 10 0 6
16 10 36 10 21 0 33 4 29 10 -4 6 7 10 24 10 17 0 31 5 31 10 0 6 14 10 30 10
17 0 30 5 30 10 0 6 9 10 20 10 20 0 27 2 88 33 19 9 42 17 52 17 32 0 50 39
50 110 0 79 -8 110 -27 110 -8 0 -11 5 -8 10 4 6 -7 10 -24 10 -17 0 -31 5
-31 10 0 6 -13 10 -30 10 -16 0 -30 5 -30 10 0 6 -11 10 -25 10 -14 0 -33 4
-43 9 -9 4 -35 16 -57 26 -22 9 -48 21 -57 26 -10 5 -27 9 -38 9 -11 0 -20 5
-20 10 0 6 -13 10 -30 10 -16 0 -30 5 -30 10 0 6 -13 10 -30 10 -16 0 -30 5
-30 10 0 6 -11 10 -25 10 -14 0 -25 5 -25 10 0 6 -13 10 -30 10 -16 0 -30 5
-30 10 0 6 -11 10 -25 10 -14 0 -33 4 -43 10 -9 5 -35 16 -57 25 -22 9 -48 21
-57 26 -10 5 -27 9 -38 9 -11 0 -20 5 -20 10 0 6 -22 10 -50 10 l-50 0 0 -98z"/>
</g>
</svg>
